<?xml version="1.0" encoding="utf-8"?>
<!-- Generator: Adobe Illustrator 27.2.0, SVG Export Plug-In . SVG Version: 6.00 Build 0)  -->
<svg version="1.1" xmlns="http://www.w3.org/2000/svg" xmlns:xlink="http://www.w3.org/1999/xlink" x="0px" y="0px"
	 viewBox="0 0 500 500" style="enable-background:new 0 0 500 500;" xml:space="preserve">
<style type="text/css">
	.st0{fill:#E0E0E0;}
	.st1{fill:#EBEBEB;}
	.st2{fill:#F5F5F5;}
	.st3{display:none;}
	.st4{display:inline;fill:#EBEBEB;}
	.st5{opacity:0.3;}
	.st6{fill:#7DBA28;}
	.st7{fill:#FFBE9D;}
	.st8{fill:#007C1D;}
	.st9{opacity:0.3;fill:#FFFFFF;}
	.st10{fill:#263238;}
	.st11{fill:#FAFAFA;}
	.st12{opacity:0.32;}
	.st13{fill:#455A64;}
	.st14{fill:#E8505B;}
	.st15{opacity:0.6;}
	.st16{fill:#FFFFFF;}
	.st17{opacity:0.6;fill:#FFFFFF;}
	.st18{fill:#EB996E;}
	.st19{opacity:0.2;}
	.st20{opacity:0.4;}
</style>
<g id="Background_Complete">
	<g>
		<g>
			<g>
				<g>
					<g>
						<g>
							<path class="st0" d="M332.2,92.1h65.8c0,0-5.8-10.6-22.7-9c-16.2,1.5-17-5.2-25.2-6C341.8,76.2,334.9,82.5,332.2,92.1z"/>
						</g>
					</g>
				</g>
			</g>
		</g>
	</g>
	<g>
		<g>
			<g>
				<path class="st1" d="M160.3,265.9c0,0-6.6,3.6,3,17.3c9.6,13.8,15.8,20.4,15.8,20.4s1.8,3.3-1,4.2c-2.8,0.9-9.3,0.8-10.1,4.5
					c-0.8,3.9,2.3,6.9,8.1,9.2c5.8,2.3,18.4,7.8,19.5,8.3c1.1,0.5,2.4,1.9,0.5,2.9s-15.9,4.4-13.9,11c2,6.6,19.3,10.3,21.2,10.8
					c1.9,0.4,2.4,1.1,2.4,2.1c0,1-4.9,1.7-8.8,2.9c-4,1.2-8.4,3.2-6.9,6.9c1.5,3.7,12.4,10.4,36.3,9.5l11.1-1.2l4.7-10.1
					c8.8-22.3,6-34.8,3-37.4c-3-2.6-6.4,0.9-8.8,4.2c-2.4,3.4-4.7,7.7-5.6,7.4c-0.9-0.3-1.4-1.1-1.2-3c0.2-1.9,2.4-19.5-3.2-23.6
					c-5.6-4.1-13.5,8.1-15,9.5c-1.5,1.4-2.5-0.3-2.6-1.5c-0.1-1.2-1.1-14.9-1.4-21.2c-0.2-6.3-2.1-10.2-6.1-10.7
					c-3.8-0.5-5.8,5.7-7.6,8.1c-1.8,2.4-4.3-0.4-4.3-0.4s-4.2-8.1-14-21.6c-9.8-13.6-15.5-8.4-15.5-8.4"/>
			</g>
			<g>
				<g>
					<path class="st0" d="M238.6,377.2c-7.2-10-19.7-28-30.4-43.4c-10.8-15.4-20.6-29.3-27.7-39.3c-3.6-5-6.5-9.1-8.5-11.9
						c-1-1.4-1.8-2.5-2.3-3.2c-0.3-0.4-0.4-0.6-0.6-0.8c-0.1-0.2-0.2-0.3-0.2-0.3s0.1,0.1,0.2,0.3c0.1,0.2,0.4,0.5,0.6,0.8
						c0.5,0.7,1.3,1.8,2.4,3.2c2,2.8,5,6.8,8.6,11.8c7.2,10,17,23.9,27.8,39.3c10.8,15.4,23.2,33.4,30.4,43.4"/>
				</g>
			</g>
			<g>
				<g>
					<path class="st0" d="M177.1,312.8c0,0,0.3,0,0.8,0.1c0.5,0.1,1.2,0.2,2.1,0.4c1.8,0.4,4.3,1,7,1.7c2.7,0.7,5.1,1.4,7,1.9
						c0.8,0.2,1.5,0.4,2.1,0.6c0.5,0.1,0.8,0.2,0.8,0.2c0,0-0.3,0-0.8-0.1c-0.5-0.1-1.2-0.2-2.1-0.4c-1.8-0.4-4.3-1.1-7-1.8
						c-2.7-0.7-5.1-1.3-7-1.8c-0.8-0.2-1.6-0.4-2.1-0.5C177.4,312.9,177.1,312.9,177.1,312.8z"/>
				</g>
			</g>
			<g>
				<g>
					<path class="st0" d="M197.6,317c-0.1,0,0.9-5.2,2.3-11.6c1.4-6.4,2.5-11.5,2.6-11.5c0.1,0-0.9,5.2-2.3,11.6
						C198.9,311.8,197.7,317,197.6,317z"/>
				</g>
			</g>
			<g>
				<g>
					<path class="st0" d="M213.1,341.3c0,0,0.1-0.3,0.4-0.7c0.3-0.5,0.6-1.2,1.1-2c0.9-1.7,2.1-4,3.4-6.6c1.3-2.6,2.3-5,3.1-6.7
						c0.4-0.8,0.7-1.5,0.9-2c0.2-0.5,0.3-0.7,0.4-0.7c0,0-0.1,0.3-0.2,0.8c-0.2,0.5-0.4,1.2-0.8,2.1c-0.7,1.8-1.7,4.2-3,6.8
						c-1.3,2.6-2.5,4.9-3.5,6.5c-0.5,0.8-0.9,1.5-1.2,1.9C213.3,341.1,213.1,341.3,213.1,341.3z"/>
				</g>
			</g>
			<g>
				<g>
					<path class="st0" d="M193.8,341.7c0,0,0.3-0.1,0.8-0.1c0.6,0,1.3-0.1,2.1-0.1c1.7-0.1,4.2-0.2,6.8-0.3c2.7-0.1,5.1-0.1,6.8-0.2
						c0.8,0,1.5,0,2.1,0c0.5,0,0.8,0,0.8,0c0,0-0.3,0.1-0.8,0.1c-0.6,0-1.3,0.1-2.1,0.1c-1.7,0.1-4.2,0.2-6.8,0.3
						c-2.7,0.1-5.1,0.1-6.8,0.2c-0.8,0-1.5,0-2.1,0C194,341.7,193.8,341.7,193.8,341.7z"/>
				</g>
			</g>
			<g>
				<g>
					<path class="st0" d="M204.7,364.9c0,0,0.3-0.1,1-0.1c0.7,0,1.6-0.1,2.6-0.2c2.2-0.1,5.3-0.3,8.7-0.4c3.4-0.1,6.5-0.2,8.7-0.3
						c1.1,0,2,0,2.6-0.1c0.6,0,1,0,1,0c0,0-0.3,0.1-1,0.1c-0.7,0-1.6,0.1-2.6,0.2c-2.2,0.1-5.3,0.3-8.7,0.4
						c-3.4,0.1-6.5,0.2-8.7,0.3c-1.1,0-2,0-2.6,0.1C205.1,365,204.7,365,204.7,364.9z"/>
				</g>
			</g>
			<g>
				<g>
					<path class="st0" d="M228.8,363.8c0,0,0.1-0.3,0.4-1c0.3-0.7,0.7-1.5,1.3-2.5c1.1-2.1,2.5-5.1,4-8.5c1.5-3.3,2.8-6.4,3.7-8.6
						c0.4-1.1,0.8-1.9,1.1-2.6c0.3-0.6,0.4-1,0.4-0.9c0,0-0.1,0.4-0.3,1c-0.2,0.6-0.6,1.5-1,2.7c-0.9,2.2-2.1,5.3-3.6,8.6
						c-1.5,3.3-3,6.3-4.1,8.4c-0.6,1.1-1,1.9-1.4,2.5C229,363.5,228.8,363.8,228.8,363.8z"/>
				</g>
			</g>
		</g>
		<g>
			<g>
				<g>
					<g>
						<g>
							<path class="st2" d="M321.8,216.2c-11.9-13.3-10.8-32.6-6.3-49.1c0.8-2.8,1.1-5.8,3-7.9c1.9-2.1,5.4-3.1,7.6-1.3
								c1.8,1.5,2.2,4.1,2.8,6.3c0.9,3,2.7,5.7,5,7.8c1.6,1.3,3.6,2.4,5.6,1.9c2.7-0.8,3.8-4,4.4-6.8c1.2-5.2,2.4-10.3,3.6-15.5
								c0.6-2.8,1.3-5.6,2.8-8c1.5-2.4,4-4.4,6.8-4.5c2.8-0.1,5.7,2.2,5.6,5c0,1.2-0.5,2.3-0.7,3.5c-0.2,1.2,0,2.6,1.1,3.1
								c1,0.6,2.3,0.1,3.3-0.5c3.5-2.1,6.3-5.2,8.9-8.4c2.7-3.1,5.3-6.4,8.6-8.8c3.3-2.4,7.5-4,11.5-3.3c4,0.7,7.6,4.2,7.7,8.3
								c0.1,4.1-3.1,7.5-6.3,10.1c-4.8,3.8-10.1,6.9-15.7,9.2c-1,0.4-2.1,0.9-2.7,1.8c-1,1.7,0.3,3.9,1.9,5c1.9,1.2,4.2,1.5,6.3,2.3
								c2.1,0.8,4.2,2.3,4.5,4.5c0.5,3.1-2.6,5.5-5.4,6.9c-5.6,2.8-11.6,4.6-17.8,5.3c-2.2,0.3-4.5,0.4-6.5,1.4c-2,1-3.6,3.3-3,5.5
								c0.5,2.2,2.9,3.4,5.1,3.5c2.2,0.1,4.4-0.6,6.6-0.9c4.1-0.5,9,0.9,10.6,4.7c1.1,2.5,0.5,5.6-0.9,7.9c-1.4,2.4-3.6,4.2-5.8,5.8
								c-7.8,5.7-16.9,9.6-26.4,10.6C338.1,222.6,329.8,221.5,321.8,216.2"/>
						</g>
					</g>
				</g>
			</g>
			<g>
				<g>
					<g>
						<g>
							<g>
								<path class="st0" d="M324.2,217.8c2.2-6.4-0.1-3.2,4.4-11c4.4-7.8,10-16,16.1-24.3c1.5-2.1,3.1-4.1,4.6-6.2
									c1.5-2,3-4,4.6-5.9c3.1-3.7,6.4-7.1,9.7-10.2c3.2-3.1,6.4-5.9,9.4-8.5c3-2.6,5.8-5,8.5-7.1c5.4-4.1,10.1-7,13.4-8.8
									c1.7-0.9,3-1.6,3.9-2c0.4-0.2,0.8-0.4,1-0.5c0.2-0.1,0.4-0.2,0.4-0.2c0,0-0.1,0.1-0.3,0.2c-0.2,0.1-0.6,0.3-1,0.5
									c-0.9,0.5-2.2,1.2-3.8,2.1c-3.3,1.9-7.9,4.7-13.2,8.9c-2.7,2.1-5.5,4.5-8.5,7.1c-3,2.6-6.1,5.5-9.4,8.6
									c-3.2,3.1-6.5,6.5-9.6,10.2c-1.6,1.9-3,3.8-4.5,5.9c-1.5,2-3,4.1-4.6,6.2c-6.1,8.3-11.7,16.5-16.1,24.2
									c-4.5,7.8-2.2,4.5-4.4,10.9"/>
							</g>
						</g>
					</g>
				</g>
			</g>
			<g>
				<g>
					<g>
						<g>
							<g>
								<path class="st0" d="M354,170.5c0,0,0-0.4,0-1.2c0-0.8,0.1-1.9,0.3-3.4c0.3-2.8,0.8-6.8,1.3-11.1c0.6-4.3,1-8.2,1.2-11.1
									c0.1-1.4,0.2-2.6,0.2-3.4c0-0.8,0.1-1.2,0.1-1.2c0,0,0.1,0.4,0.1,1.2c0,0.8,0,2-0.1,3.4c-0.1,2.9-0.5,6.8-1.1,11.1
									c-0.6,4.3-1.1,8.1-1.5,11c-0.2,1.3-0.3,2.4-0.4,3.3C354.1,170,354,170.5,354,170.5z"/>
							</g>
						</g>
					</g>
				</g>
			</g>
			<g>
				<g>
					<g>
						<g>
							<g>
								<path class="st0" d="M391,172.3c0,0-0.5,0-1.5-0.2c-0.9-0.1-2.3-0.3-3.9-0.5c-3.3-0.4-8-0.8-13.1-1.1
									c-5.1-0.2-9.8-0.2-13.1-0.1c-1.7,0-3,0.1-4,0.1c-0.9,0-1.5,0-1.5,0c0,0,0.5-0.1,1.5-0.2c0.9-0.1,2.3-0.2,4-0.3
									c3.4-0.2,8-0.2,13.2,0c5.1,0.2,9.8,0.7,13.1,1.2c1.7,0.2,3,0.5,3.9,0.7C390.5,172.1,391,172.2,391,172.3z"/>
							</g>
						</g>
					</g>
				</g>
			</g>
			<g>
				<g>
					<g>
						<g>
							<g>
								<path class="st0" d="M329.2,206.3c0,0-0.1-0.2-0.1-0.5c-0.1-0.4-0.2-0.9-0.3-1.4c-0.3-1.2-0.6-3-1-5.3
									c-0.7-4.5-1.6-10.7-2.4-17.5c-0.8-6.9-1.6-13.1-2.3-17.6c-0.3-2.2-0.6-4-0.8-5.3c-0.1-0.6-0.2-1.1-0.2-1.4
									c0-0.3-0.1-0.5,0-0.5c0,0,0.1,0.2,0.1,0.5c0.1,0.4,0.2,0.9,0.3,1.4c0.3,1.2,0.6,3,1,5.3c0.7,4.5,1.6,10.7,2.4,17.6
									c0.8,6.9,1.6,13.1,2.3,17.6c0.3,2.2,0.6,4,0.8,5.3c0.1,0.6,0.2,1.1,0.2,1.4C329.2,206.1,329.2,206.3,329.2,206.3z"/>
							</g>
						</g>
					</g>
				</g>
			</g>
			<g>
				<g>
					<g>
						<g>
							<g>
								<path class="st0" d="M379.9,202.2c0,0-0.2,0-0.5,0.1c-0.4,0-0.9,0.1-1.5,0.1c-1.4,0.1-3.2,0.3-5.4,0.4
									c-4.6,0.4-10.9,1-17.9,1.6c-7,0.7-13.4,1.2-18,1.5c-2.3,0.1-4.2,0.2-5.5,0.3c-0.6,0-1.1,0-1.5,0c-0.3,0-0.5,0-0.5,0
									c0,0,0.2,0,0.5-0.1c0.4,0,0.9-0.1,1.5-0.1c1.4-0.1,3.2-0.3,5.4-0.4c4.6-0.4,10.9-1,17.9-1.6c7-0.7,13.3-1.2,18-1.5
									c2.3-0.1,4.2-0.2,5.5-0.3c0.6,0,1.1,0,1.5,0C379.8,202.2,379.9,202.2,379.9,202.2z"/>
							</g>
						</g>
					</g>
				</g>
			</g>
		</g>
		<g>
			<g>
				<g>
					<g>
						<g>
							<g>
								<path class="st0" d="M419.3,304c0,0,0,0.2-0.2,0.5c-0.1,0.3-0.3,0.8-0.5,1.3c-0.5,1.2-1.2,2.9-2.1,5
									c-1.9,4.3-4.5,10.5-7.7,17.8l0,0.1l-0.1,0c-7.1,1.2-15.4,2.5-24.2,4c-2.8,0.5-5.5,0.9-8.1,1.3l-0.4,0.1l0.1-0.4
									c2-7.8,3.8-15,5.3-21.1l0.1,0.2c-5.9-2.6-10.8-4.8-14.2-6.4c-1.7-0.8-3-1.4-3.9-1.8c-0.4-0.2-0.8-0.4-1-0.5
									c-0.2-0.1-0.3-0.2-0.3-0.2c0,0,0.1,0,0.4,0.1c0.3,0.1,0.6,0.3,1,0.4c0.9,0.4,2.3,1,4,1.7c3.5,1.5,8.4,3.6,14.3,6.2l0.2,0.1
									l0,0.2c-1.5,6.1-3.3,13.3-5.3,21.1l-0.3-0.3c2.6-0.4,5.4-0.9,8.1-1.3c8.8-1.4,17.1-2.8,24.2-3.9l-0.2,0.1
									c3.2-7.3,5.9-13.4,7.9-17.8c1-2.1,1.7-3.8,2.2-5c0.3-0.5,0.5-1,0.6-1.3C419.2,304.1,419.3,304,419.3,304z"/>
							</g>
						</g>
					</g>
				</g>
			</g>
			<g>
				<g>
					<g>
						<g>
							<polygon class="st0" points="379.1,331.3 378.4,333 379.5,334.5 377.6,334.4 376.5,335.9 376,334.1 374.3,333.5 375.8,332.5 
								375.9,330.6 377.3,331.8 							"/>
						</g>
					</g>
				</g>
			</g>
			<g>
				<g>
					<g>
						<g>
							<polygon class="st0" points="362.5,303 362.1,303.9 362.7,304.6 361.7,304.6 361.2,305.3 360.9,304.4 360.1,304.1 
								360.8,303.6 360.9,302.7 361.6,303.3 							"/>
						</g>
					</g>
				</g>
			</g>
			<g>
				<g>
					<g>
						<g>
							<polygon class="st0" points="409.4,327.6 409.1,328.4 409.6,329.2 408.7,329.1 408.1,329.9 407.9,329 407,328.7 407.8,328.2 
								407.8,327.3 408.5,327.8 							"/>
						</g>
					</g>
				</g>
			</g>
			<g>
				<g>
					<g>
						<g>
							<polygon class="st0" points="382.3,312 382,312.8 382.5,313.6 381.6,313.6 381,314.3 380.8,313.4 379.9,313.1 380.7,312.6 
								380.7,311.7 381.4,312.2 							"/>
						</g>
					</g>
				</g>
			</g>
			<g>
				<g>
					<g>
						<g>
							<polygon class="st0" points="420.4,303.1 420.1,304 420.6,304.8 419.7,304.7 419.2,305.5 418.9,304.6 418,304.3 418.8,303.7 
								418.8,302.8 419.6,303.4 							"/>
						</g>
					</g>
				</g>
			</g>
		</g>
		<g>
			<g>
				<g>
					<g>
						<g>
							<g>
								<path class="st0" d="M117.3,375.9h52.4c0,0-4.6-8.4-18.1-7.2c-12.9,1.2-13.5-4.1-20.1-4.8
									C125,363.3,119.5,368.3,117.3,375.9z"/>
							</g>
						</g>
					</g>
				</g>
			</g>
		</g>
		<g>
			<g>
				<g>
					<g>
						<g>
							<g>
								<path class="st2" d="M127.7,169.8h52.4c0,0-4.6-8.4-18.1-7.2c-12.9,1.2-13.5-4.1-20.1-4.8
									C135.4,157.1,129.9,162.2,127.7,169.8z"/>
							</g>
						</g>
					</g>
				</g>
			</g>
		</g>
		<g>
			<g>
				<g>
					<g>
						<g>
							<g>
								<path class="st2" d="M393.6,206.2h43c0,0-3.8-6.9-14.9-5.9c-10.6,1-11.1-3.4-16.5-3.9C399.9,195.8,395.4,199.9,393.6,206.2z
									"/>
							</g>
						</g>
					</g>
				</g>
			</g>
		</g>
	</g>
</g>
<g id="Background_Simple" class="st3">
	<path class="st4" d="M418.5,123.3L418.5,123.3C404.2,100,380.4,84,353.4,80.4c-10.5-1.4-21.2-1.1-31.6,1.1
		c-31,6.5-57.9,29.7-69,59.3c-6.6,17.4-8.4,37.5-20.9,51.3c-16.2,18-43.7,18.5-67.9,17.8c-24.2-0.7-51.8-0.1-67.9,17.9
		c-10.1,11.3-13.3,27.4-12.5,42.5c2.2,40.1,30.4,75.9,66.4,93.8c36,17.8,78.3,19.4,117.7,11.6c55.2-11,107.6-41.1,139.2-87.7
		c30-44.4,38.7-104.1,17.6-153.1C422.8,130.8,420.8,127,418.5,123.3z"/>
</g>
<g id="Pencil">
	<g>
		<g class="st5">
			<path class="st6" d="M307.7,291.1c2.1-16.1-9.2-29.4-23.4-37.4c-14.2-8-30.6-10.7-46.2-15.1c-14.8-4.2-29.4-10.3-40.3-21.1
				c-10.9-10.8-17.5-26.9-13.6-41.8c1-3.7,2.7-7.5,5.9-9.6c3.2-2.1,8.1-2.1,10.5,0.9c5.1,6.4-4.8,18,1.4,23.3
				c1.4,1.2,3.4,1.7,4.8,2.9c3.9,3.1,2.6,9.2,3.2,14.2c1.1,9.8,10.3,16.7,19.4,20.7c12.1,5.3,25.3,7.9,38.2,11
				c12.9,3.2,25.9,7.2,36.6,15c10.7,7.8,20.1,20,20,33.3c0,3.7-0.5,8.3-2.8,11.2c-2.3,2.9-5.3,3.5-8.6,1.9
				C309.5,298.9,307.1,296.4,307.7,291.1"/>
		</g>
		<g class="st5">
			<path class="st6" d="M239.2,163c-0.5-6,3.9-11.2,9-14c5.1-2.8,10.9-3.9,16.1-6.4c12.9-6.1,21.2-20.6,21.8-35.4
				c0.6-14.8-5.8-29.6-15.9-40.5c-4.1-4.4-9.1-9.1-9.2-15.1c-0.1-6.3,6-11.3,12.1-11.2c6.1,0.1,11.7,4.2,15.4,9.3s5.7,11.3,7.6,17.3
				c-1.4-2.5,1.5-5.6,4.2-5.4c2.8,0.3,5,2.6,6.7,4.9c7.3,9.9,11,22.6,10,34.8c-1,12.2-6.7,23.9-15.5,31.9
				c-9.9,9-22.9,13.2-35.6,17.2c-8.8,2.8-17.6,5.6-26.4,8.3"/>
		</g>
		<g>
			<g class="st5">
				<path class="st6" d="M230.2,33.6c-2.6,1.1-4.1,4.4-3.1,7.1c1,2.7,4.2,4.3,7,3.4c2.7-0.9,4.4-4.1,3.7-6.8c-0.8-2.7-3.9-4.6-6.6-4
					"/>
			</g>
		</g>
	</g>
	<g class="st5">
		<path class="st6" d="M264.5,422.8c-3.2-6.7-0.4-15.1,4.7-20.5c5.2-5.4,12.2-8.5,19-11.5c15.1-6.6,31-14.5,38.6-29.1
			c2.6-4.9,4.1-10.3,5.5-15.7c2.8-10.4,5.4-22.1-0.2-31.3c-1.6-2.6-4.1-5-7.1-5.5c-3.5-0.6-7,1.3-9.2,4.1c-2.1,2.8-3,6.3-3.5,9.8
			c-0.8,6.6-0.1,13.4-0.8,20c-0.7,6.7-3.1,13.6-8.6,17.4c-6.7,4.6-16.2,3.6-22.6,8.5c-5.2,4-7.2,10.8-11.3,16
			c-3.4,4.3-8.2,7.3-12.6,10.6c-4.4,3.3-8.7,7.4-10.2,12.7c-1.6,5.5,0.4,11.9,4.8,15.5c4.4,3.7,11,4.5,16.1,2.1"/>
	</g>
	<g>
		<g>
			<path class="st6" d="M171.6,93.2h-1.5c-3,0-5.4-2.4-5.4-5.4V62.4H177v25.3C177,90.7,174.6,93.2,171.6,93.2z"/>
			<polygon class="st7" points="164.7,62.4 170.9,51.1 177,62.4 			"/>
			<path class="st8" d="M168.4,55.6c0,0,1.9,2.8,4.9,0l-2.4-4.5L168.4,55.6z"/>
			<line class="st9" x1="166.5" y1="62.4" x2="169.2" y2="62.4"/>
		</g>
		<g>
			<path class="st10" d="M177.2,86.5c0,0.1-2.8,0.2-6.2,0.2c-3.5,0-6.2-0.1-6.2-0.2c0-0.1,2.8-0.2,6.2-0.2
				C174.4,86.3,177.2,86.4,177.2,86.5z"/>
		</g>
		<g>
			<path class="st10" d="M177,84.6c0,0.1-2.7,0.2-6.1,0.2c-3.4,0-6.1-0.1-6.1-0.2c0-0.1,2.7-0.2,6.1-0.2
				C174.3,84.4,177,84.5,177,84.6z"/>
		</g>
		<g>
			<path class="st11" d="M168.3,62.6c0.1,0,0.2,4.9,0.2,11c0,6.1-0.1,11-0.2,11c-0.1,0-0.2-4.9-0.2-11
				C168.1,67.5,168.2,62.6,168.3,62.6z"/>
		</g>
		<g>
			<path class="st11" d="M173.3,62.6c0.1,0,0.2,4.9,0.2,11c0,6.1-0.1,11-0.2,11c-0.1,0-0.2-4.9-0.2-11
				C173,67.5,173.2,62.6,173.3,62.6z"/>
		</g>
	</g>
	<g class="st12">
		<path class="st6" d="M164.3,83.9c-5.3-3.9-8.5-10.5-8.4-17.1c0.1-6.6,3.6-13.1,9-16.8c3.1-2.1,6.7-3.4,9.5-5.9
			c2.4-2.3,4-5.4,6.7-7.3c3.4-2.4,8.3-2.3,11.6,0.2c3.3,2.5,4.7,7.2,3.3,11.1c-1.3,3.5-4.4,6.1-5.7,9.6c-1.4,3.8-0.5,8-1,11.9
			c-0.6,4.9-3.6,9.4-7.8,12c-4.2,2.5-9.6,3-14.2,1.3"/>
	</g>
</g>
<g id="Notebook">
	<g>
		<polygon class="st8" points="271.5,408.7 327.3,411.1 328.7,414.4 292.1,473.8 226,471.8 		"/>
		<polygon class="st0" points="223.5,466 290,469.8 324.7,416 300.3,417.9 238.6,439.7 		"/>
		<g>
			<path class="st1" d="M214.2,462l61,1c-2.5-7.8,3.4-18.8,11.6-22.5c5.4-2.5,15.7-5.6,21-8.3c10-5.1,19.1-14.9,18.3-23.3l-25.1-0.8
				l-32-1.2c-2.7,7.9-8.4,13.1-17.1,16.3c-7.8,2.8-16.6,2.8-24.2,6C215.5,434.2,209.6,450.8,214.2,462"/>
			<g>
				<path class="st10" d="M214.2,462c0,0-0.1-0.1-0.2-0.4c-0.1-0.3-0.2-0.7-0.4-1.2c-0.2-0.5-0.3-1.2-0.5-2
					c-0.2-0.8-0.3-1.7-0.4-2.8c-0.2-2.1-0.1-4.8,0.5-7.8c0.6-3,1.8-6.4,3.9-9.7c0.5-0.8,1.1-1.7,1.8-2.5c0.3-0.4,0.6-0.8,1-1.2
					c0.4-0.4,0.7-0.8,1.1-1.1c0.4-0.4,0.8-0.8,1.2-1.1c0.4-0.3,0.9-0.7,1.3-1.1c1-0.6,1.9-1.3,3-1.8c4.2-2.1,9.3-3,14.5-4
					c2.6-0.5,5.4-1,8.1-1.7c2.7-0.8,5.4-1.8,8-3.2c1.3-0.7,2.6-1.5,3.8-2.5c1.2-0.9,2.3-2,3.3-3.1c2.1-2.3,3.6-5.1,4.6-8.2l0.1-0.2
					l0.2,0c8.5,0.3,17.4,0.7,26.7,1c9.2,0.4,18.8,0.6,28.6,0.9c0.6,0,1.2,0,1.8,0.1l0.2,0l0,0.2c0.2,1.9-0.2,3.9-0.8,5.6
					c-0.3,0.9-0.7,1.7-1.1,2.6c-0.5,0.8-0.9,1.6-1.5,2.4c-2.1,3.1-4.7,5.7-7.6,8c-2.8,2.3-5.9,4.2-9.1,5.6c-3.2,1.4-6.5,2.6-9.7,3.8
					c-3.2,1.2-6.3,2.3-9.3,3.6c-1.5,0.7-2.9,1.5-4.1,2.5c-0.6,0.5-1.2,1-1.8,1.6c-0.5,0.6-1.1,1.1-1.6,1.8c-2,2.4-3.5,5.2-4.3,8
					c-0.9,2.8-1,5.9-0.2,8.5l0.1,0.3l-0.3,0c-18.5-0.3-33.7-0.6-44.4-0.8c-5.3-0.1-9.5-0.2-12.3-0.2c-1.4,0-2.5-0.1-3.2-0.1
					C214.5,462.1,214.2,462,214.2,462c0,0,0.4,0,1.1,0c0.7,0,1.8,0,3.2,0c2.8,0,7,0.1,12.3,0.1c10.6,0.1,25.9,0.4,44.4,0.6l-0.2,0.3
					c-0.8-2.8-0.7-5.9,0.1-8.8c0.8-2.9,2.3-5.7,4.3-8.2c0.5-0.6,1.1-1.2,1.6-1.8c0.6-0.5,1.2-1.1,1.8-1.6c1.2-1,2.7-1.9,4.2-2.6
					c3-1.3,6.2-2.4,9.4-3.6c3.2-1.2,6.4-2.4,9.6-3.8c3.2-1.5,6.2-3.3,9-5.6c2.8-2.3,5.4-4.8,7.5-7.9c0.5-0.7,1-1.6,1.4-2.4
					c0.4-0.8,0.8-1.7,1.1-2.5c0.6-1.7,0.9-3.6,0.8-5.4l0.2,0.2c-0.6,0-1.2,0-1.8-0.1c-9.8-0.3-19.4-0.6-28.6-1
					c-9.2-0.4-18.2-0.7-26.7-1l0.2-0.2c-1.1,3.1-2.6,6-4.7,8.3c-1,1.2-2.2,2.3-3.4,3.2c-1.2,0.9-2.5,1.8-3.8,2.5
					c-2.6,1.5-5.4,2.5-8.1,3.3c-2.8,0.7-5.5,1.2-8.1,1.7c-5.3,0.9-10.3,1.8-14.5,3.9c-1.1,0.5-2,1.1-2.9,1.7c-0.5,0.3-0.9,0.7-1.3,1
					c-0.4,0.3-0.8,0.7-1.2,1.1c-0.4,0.4-0.8,0.8-1.1,1.1c-0.4,0.4-0.7,0.8-1,1.2c-0.7,0.8-1.2,1.6-1.8,2.4c-2.1,3.3-3.3,6.6-3.9,9.6
					c-0.6,3-0.7,5.6-0.5,7.7c0.1,1,0.2,2,0.4,2.8c0.2,0.8,0.3,1.5,0.5,2c0.2,0.5,0.3,0.9,0.4,1.2C214.1,461.9,214.2,462,214.2,462z"
					/>
			</g>
		</g>
		<g>
			<path class="st10" d="M286.2,407.9c0,0,0.1-0.4,0.1-1.1c0.1-0.7,0-1.7-0.5-2.9c-0.5-1.1-1.4-2.4-2.9-3.1
				c-1.5-0.7-3.4-0.8-5.1-0.2c-1.8,0.7-3.1,2.1-3.7,3.6c-0.7,1.5-0.8,3-0.6,4.3c0.2,1.2,0.7,2.2,1,2.7c0.4,0.6,0.7,0.9,0.6,0.9
				c0,0-0.3-0.2-0.8-0.8c-0.4-0.6-1-1.5-1.2-2.8c-0.3-1.3-0.2-2.9,0.5-4.5c0.7-1.6,2-3.1,4-3.9c1.9-0.7,4-0.5,5.5,0.2
				c1.6,0.8,2.6,2.2,3,3.4c0.5,1.2,0.5,2.3,0.3,3c-0.1,0.4-0.1,0.6-0.2,0.8C286.3,407.8,286.2,407.9,286.2,407.9z"/>
		</g>
		<g>
			<path class="st10" d="M295.8,407.9c0,0,0.1-0.4,0.1-1.1c0.1-0.7,0-1.7-0.5-2.9c-0.5-1.1-1.4-2.4-2.9-3.1
				c-1.5-0.7-3.4-0.8-5.1-0.2c-1.8,0.7-3.1,2.1-3.7,3.6c-0.7,1.5-0.8,3-0.6,4.3c0.2,1.2,0.7,2.2,1,2.7c0.4,0.6,0.7,0.9,0.6,0.9
				c0,0-0.3-0.2-0.8-0.8c-0.4-0.6-1-1.5-1.2-2.8c-0.3-1.3-0.2-2.9,0.5-4.5c0.7-1.6,2-3.1,4-3.9c1.9-0.7,4-0.5,5.5,0.2
				c1.6,0.8,2.6,2.2,3,3.4c0.5,1.2,0.5,2.3,0.3,3c-0.1,0.4-0.1,0.6-0.2,0.8C295.8,407.8,295.8,407.9,295.8,407.9z"/>
		</g>
		<g>
			<path class="st10" d="M303,408.4c0,0,0.1-0.4,0.1-1.1c0-0.7-0.1-1.7-0.6-2.9c-0.5-1.1-1.5-2.3-3.1-2.9c-1.5-0.6-3.4-0.7-5.1,0.1
				c-1.7,0.7-2.9,2.3-3.5,3.8c-0.6,1.5-0.6,3.1-0.3,4.3c0.3,1.2,0.8,2.1,1.2,2.7c0.4,0.6,0.7,0.8,0.7,0.9c0,0-0.4-0.2-0.8-0.7
				c-0.5-0.5-1.1-1.5-1.4-2.7c-0.3-1.3-0.4-2.9,0.3-4.5c0.6-1.6,1.9-3.3,3.7-4.1c1.9-0.8,3.9-0.8,5.5-0.1c1.6,0.7,2.7,2,3.2,3.2
				c0.5,1.2,0.6,2.3,0.5,3c0,0.4-0.1,0.6-0.2,0.8C303.1,408.3,303,408.4,303,408.4z"/>
		</g>
		<g>
			<path class="st10" d="M310.8,408.8c0,0,0-0.4,0-1.1c0-0.7-0.2-1.7-0.8-2.8c-0.6-1.1-1.7-2.2-3.2-2.8c-1.5-0.5-3.5-0.5-5.1,0.4
				c-1.7,0.8-2.8,2.4-3.3,4c-0.5,1.6-0.4,3.1-0.1,4.3c0.3,1.2,0.9,2.1,1.3,2.6c0.4,0.5,0.8,0.8,0.7,0.8c0,0-0.4-0.2-0.9-0.7
				c-0.5-0.5-1.1-1.4-1.5-2.6c-0.4-1.2-0.5-2.9,0-4.5c0.5-1.6,1.7-3.4,3.5-4.3c1.8-0.9,3.9-1,5.5-0.4c1.7,0.6,2.8,1.9,3.4,3
				c0.6,1.2,0.7,2.3,0.7,3c0,0.4-0.1,0.6-0.1,0.8C310.9,408.7,310.8,408.8,310.8,408.8z"/>
		</g>
		<g>
			<path class="st10" d="M318.6,408.6c0,0,0-0.4,0-1.1c0-0.7-0.2-1.7-0.9-2.8c-0.6-1.1-1.7-2.2-3.3-2.7c-1.5-0.5-3.5-0.4-5.1,0.5
				c-1.7,0.9-2.7,2.5-3.2,4.1c-0.5,1.6-0.4,3.1,0,4.3c0.4,1.2,1,2,1.4,2.6c0.5,0.5,0.8,0.8,0.7,0.8c0,0-0.4-0.2-0.9-0.7
				c-0.5-0.5-1.2-1.4-1.6-2.6c-0.4-1.2-0.6-2.9-0.1-4.5c0.5-1.7,1.6-3.4,3.4-4.4c1.8-1,3.8-1.1,5.5-0.5c1.7,0.6,2.8,1.8,3.4,2.9
				c0.6,1.2,0.8,2.2,0.8,3c0,0.4,0,0.6-0.1,0.8C318.7,408.5,318.6,408.6,318.6,408.6z"/>
		</g>
		<g>
			<path class="st10" d="M325.2,409.5c0,0,0-0.4,0-1.1c0-0.7-0.2-1.7-0.8-2.8c-0.6-1.1-1.6-2.2-3.2-2.8c-1.5-0.6-3.4-0.5-5.1,0.3
				c-1.7,0.8-2.8,2.4-3.3,3.9c-0.5,1.6-0.5,3.1-0.2,4.3c0.3,1.2,0.9,2.1,1.3,2.6c0.4,0.6,0.7,0.8,0.7,0.8c0,0-0.4-0.2-0.9-0.7
				c-0.5-0.5-1.1-1.4-1.5-2.7c-0.4-1.2-0.5-2.9,0.1-4.5c0.5-1.6,1.7-3.3,3.6-4.2c1.8-0.9,3.9-0.9,5.5-0.3c1.7,0.6,2.8,1.9,3.3,3.1
				c0.6,1.2,0.7,2.3,0.6,3c0,0.4-0.1,0.6-0.1,0.8C325.2,409.4,325.2,409.5,325.2,409.5z"/>
		</g>
	</g>
</g>
<g id="Air_Balloon">
	<g>
		<path class="st6" d="M354,204.7c-2.6-0.1-5.4,0-8.3,0.4c-17.2,2.1-30.1,16.9-30,34.3c0,5.1,0.5,10.7,2.1,16.3
			c4.8,17.1,6.3,32.1,5.7,39.4l16.1,8.7c0,0,7.5-10.7,14.7-15.3c7.2-4.6,31.2-17,40.6-29.7c6.1-8.2,7.3-25-7.3-39.7
			C378.7,210.1,366.6,205,354,204.7z"/>
		<polygon class="st13" points="315.9,313.7 330.4,321.6 321,333.6 311.3,329.2 		"/>
		<g>
			<path class="st10" d="M316.6,314.2c-0.1,0,1.3-4.4,3.2-9.6c1.9-5.3,3.6-9.5,3.7-9.5c0.1,0-1.3,4.4-3.2,9.6
				C318.4,310,316.7,314.2,316.6,314.2z"/>
		</g>
		<g>
			<path class="st10" d="M329.5,321c-0.1-0.1,2.2-4.1,5.1-9.1c2.9-5,5.4-8.9,5.5-8.9c0.1,0.1-2.2,4.1-5.1,9.1
				C332.1,317.1,329.6,321,329.5,321z"/>
		</g>
		<g>
			<path class="st8" d="M358.8,205.1c-0.7,0-8.7,9.4-12.2,15.7c-11.9,21.3-12.4,42.1-15.7,66.3c-0.5,3.5-2.2,10.9-2.2,10.7
				c1.8,1.4,7.7,4.1,7.7,4.1s5.6-6.7,7.8-10.1c8.9-13.6,18.5-24.2,26.1-38.5c7.6-14.3,14.9-27,7.9-41.7
				C378.2,211.7,366,204.7,358.8,205.1z"/>
		</g>
		<g>
			<path class="st10" d="M395,260.9c0,0-0.1-0.2-0.2-0.5c-0.1-0.3-0.3-0.8-0.6-1.4c-0.5-1.2-1.4-2.8-2.8-4.7c-1.4-1.9-3.4-4-6.2-5.8
				c-2.7-1.8-6.2-3.3-10.1-3.8l-0.1,0l-0.1-0.1c-1.8-2.5-4-5.1-6.5-7.5c-2.5-2.4-5.5-4.6-8.9-6.1c-3.4-1.5-7-2.2-10.5-2
				c-3.4,0.2-6.7,1.3-9.2,3.1l-0.1,0.1l-0.1-0.1c-3-2.6-6.6-4-9.8-4.4c-3.2-0.4-6.1,0.2-8.3,1.1c-2.2,0.8-3.8,1.9-4.8,2.7
				c-0.5,0.4-0.9,0.7-1.1,0.9c-0.2,0.2-0.4,0.3-0.4,0.3c0,0,0.1-0.1,0.3-0.4c0.2-0.2,0.6-0.6,1.1-1c1-0.8,2.5-1.9,4.8-2.8
				c2.2-0.9,5.1-1.5,8.5-1.2c3.3,0.3,7,1.7,10.1,4.4l-0.3,0c2.6-1.9,5.9-3,9.4-3.2c3.5-0.2,7.3,0.5,10.7,2c3.5,1.6,6.5,3.8,9,6.2
				c2.5,2.4,4.7,5,6.5,7.5l-0.2-0.1c4,0.5,7.6,2,10.3,3.9c2.8,1.8,4.8,4,6.2,5.9c1.4,1.9,2.2,3.6,2.7,4.8c0.3,0.6,0.4,1.1,0.5,1.4
				C394.9,260.7,395,260.9,395,260.9z"/>
		</g>
		<g>
			<path class="st10" d="M365.1,282.2c-0.1,0-0.1-1.5-1.4-3.5c-0.7-1-1.6-2.1-3.1-3c-1.4-0.9-3.3-1.5-5.3-1.3l-0.2,0l0-0.2
				c-0.3-2.1-1.2-4.3-2.6-6.2c-1.5-1.9-3.5-3.7-6-4.6c-2-0.8-4.2-1.1-6.2-1c-2,0.1-3.9,0.7-5.6,1.6l-0.2,0.1l-0.1-0.1
				c-1.6-1.7-3.7-2.7-5.6-3c-1.9-0.4-3.7-0.2-5,0.2c-2.8,0.7-3.9,2.1-4,2c0,0,0.1-0.1,0.2-0.2c0.2-0.1,0.4-0.3,0.7-0.6
				c0.6-0.5,1.6-1,3-1.5c1.4-0.4,3.2-0.6,5.2-0.3c2,0.3,4.1,1.3,5.9,3.1l-0.3,0c1.7-0.9,3.6-1.5,5.7-1.7c2.1-0.2,4.3,0.1,6.5,1
				c2.6,1,4.7,2.8,6.2,4.8c1.5,2,2.4,4.3,2.7,6.4l-0.2-0.2c2.2-0.2,4.1,0.5,5.6,1.4c1.5,0.9,2.5,2.1,3.1,3.1c0.6,1.1,0.9,2,1.1,2.6
				c0.1,0.3,0.1,0.6,0.1,0.7C365.1,282.1,365.1,282.2,365.1,282.2z"/>
		</g>
		<g>
			<path class="st10" d="M327.6,325.4c0,0-0.2-0.2-0.5-0.4c-0.4-0.2-1-0.2-1.7,0.1c-0.4,0.1-0.8,0.2-1.3,0.2c-0.5,0-1.1-0.2-1.4-0.6
				c-0.8-0.8-1.1-2-1.8-2.8c-0.4-0.4-0.8-0.6-1.3-0.6c-0.5,0-1,0.2-1.5,0.3c-0.5,0.1-1,0.2-1.5,0.1c-0.5-0.1-0.9-0.3-1.2-0.6
				c-0.6-0.5-0.9-1.2-1-1.6c-0.1-0.4,0-0.7,0-0.7c0,0,0,0.2,0.2,0.6c0.1,0.4,0.4,0.9,1,1.4c0.3,0.2,0.6,0.4,1.1,0.5
				c0.4,0.1,0.9,0,1.3-0.1c0.5-0.1,1-0.3,1.6-0.3c0.6-0.1,1.3,0.2,1.7,0.7c0.8,1,1.1,2.1,1.8,2.8c0.3,0.3,0.7,0.5,1.1,0.5
				c0.4,0,0.8-0.1,1.2-0.2c0.8-0.2,1.5-0.1,1.9,0.1C327.6,325.1,327.7,325.4,327.6,325.4z"/>
		</g>
		<g>
			<path class="st10" d="M329.3,323c-0.1,0.1-3.2-1.4-7.1-3.5c-3.9-2.1-6.9-3.8-6.9-3.9c0.1-0.1,3.2,1.4,7.1,3.5
				C326.3,321.1,329.4,322.9,329.3,323z"/>
		</g>
		<g>
			<path class="st10" d="M326.4,326.7c0,0-0.2,0.1-0.6,0.3c-0.2,0.1-0.4,0.2-0.7,0.3c-0.3,0.1-0.6,0.2-1,0.1
				c-0.7-0.1-1.6-0.3-2.4-0.9c-0.4-0.3-0.7-0.8-0.9-1.3c-0.2-0.5-0.4-1-0.7-1.3c-0.7-0.7-1.7-0.8-2.6-0.8c-0.9,0-1.8,0.1-2.5-0.2
				c-0.7-0.3-1.1-0.8-1.3-1.2c-0.2-0.4-0.1-0.6-0.1-0.6c0,0,0.1,0.2,0.3,0.5c0.2,0.3,0.6,0.7,1.2,0.9c0.6,0.2,1.4,0.2,2.4,0.1
				c0.9,0,2.1,0,3,0.9c0.4,0.5,0.6,1,0.8,1.4c0.2,0.5,0.4,0.8,0.8,1.1c0.7,0.6,1.5,0.8,2.1,0.9c0.7,0.1,1.2-0.2,1.6-0.3
				C326.2,326.7,326.4,326.7,326.4,326.7z"/>
		</g>
	</g>
</g>
<g id="Character">
	<g>
		<g>
			<path class="st14" d="M216.6,233.3l25.1-3.7l-12-17l-6.4,0.4c-4.3,0.3-8.2,2.9-9.9,6.9v0c-0.9,2.1-1.2,4.5-0.7,6.7L216.6,233.3z"
				/>
			<path class="st8" d="M216.6,233.3l25.1-3.7l-12-17l-6.4,0.4c-4.3,0.3-8.2,2.9-9.9,6.9v0c-0.9,2.1-1.2,4.5-0.7,6.7L216.6,233.3z"
				/>
		</g>
		<g>
			<g>
				<path class="st7" d="M324.6,261.2c0.3,0.7,0.5,1.6,0.8,2.6c0.2,0.9,0.3,1.8,0.3,2.7c-0.1,1.1-0.2,2.6-0.6,3.3
					c-0.4,1,0.5,1.9,1.4,1.4c0.8-0.5,2-3.1,1.9-6.4c-0.1-3.3,3.3,0.7,4.6,2.1c1.3,1.4,5.4,5.7,6.2,5.7c1.1-0.1,1.2-1.3-0.1-2.7
					c-1.3-1.4-4.9-5.9-4.1-6.5c0.8-0.6,7.1,6.8,7.1,6.8s1.1,1.8,2,1.1c1.7-1.3-5.7-8.7-6.4-9.3c-0.5-0.5,0.3-1.2,0.8-0.7
					c0.5,0.6,6.2,7.5,7.9,6.3c1.3-1-6-6.1-6.4-8.2c-0.4-2.1,5.2,4.5,6.4,3.5c0.5-0.4,0.8-0.7-3-4c-1.8-1.6-8.7-6.4-8.7-6.4
					l-20.6-59.1l-15.9,9.1L324.6,261.2z"/>
			</g>
			<path class="st7" d="M201.8,149.4l-23.1-27.5l0,0c-0.3-0.9-0.7-1.9-1.1-2.7c-1.2-2.1-3.1-4-5.4-4.5c-1.5-0.3-3.1-0.2-4.3-1.1
				c-0.5-0.4-0.9-1-1.4-1.4c-0.5-0.4-1.4-0.5-1.8,0.1c-0.2,0.4-0.1,0.9,0.1,1.4c0.9,2,2.3,3.8,4,5.2c-2.2,0.7-5.3,1.7-5.3,1.7
				s-4.9-5.3-7.4-5.3c-2.5,0,2,4.7,2,4.7s-4-3.7-5.2-2.7c-1.2,1,1.9,3.8,1.9,3.8c-1-0.5-2.1-1.1-3.2-0.9c-1.1,0.2-2.1,1.5-1.5,2.5
				c0.2,0.4,0.6,0.6,1,0.8c2,1.1,4.1,2.3,6.1,3.4c1,0.6,2.1,1.2,3.3,1.2c3.1,0.1,5.5-1.8,8.6-1.7c0,0,17.4,36.6,19.2,38.5
				c1.8,1.9,40,4.5,40,4.5l22.1-19.1L201.8,149.4z"/>
			<g>
				<path class="st6" d="M271,348.8l23.6,10.3L282,388.5c-2.7-1.4-1.8-19-1.8-19l-15.4-6L271,348.8z"/>
				<g class="st15">
					<path class="st16" d="M282.8,359.8c0.4-0.5,1.2-0.6,1.7-0.2c0.5,0.4,0.6,1.2,0.3,1.7c-0.4,0.5-1.4,0.7-1.8,0.2
						C282.5,361.1,282.4,360.1,282.8,359.8"/>
				</g>
				<path class="st17" d="M294.6,359.1l-2.4-0.9L281,386.7c0,0,0,1.6,1,1.8L294.6,359.1z"/>
				<g>
					<path class="st10" d="M279.8,369.9c0.1,0.1,0.5-0.6,1.3-1.1c0.8-0.5,1.5-0.6,1.5-0.8c0-0.1-0.9-0.3-1.8,0.3
						C279.8,368.9,279.6,369.9,279.8,369.9z"/>
				</g>
				<g>
					<path class="st10" d="M279.7,373.5c0.1,0.1,0.6-0.4,1.5-0.7c0.8-0.3,1.5-0.1,1.6-0.2c0.1-0.1-0.7-0.6-1.7-0.3
						C280,372.6,279.6,373.4,279.7,373.5z"/>
				</g>
				<g>
					<path class="st10" d="M282.7,376.8c0.1-0.1-0.5-0.6-1.5-0.6c-0.9,0-1.5,0.6-1.5,0.7c0.1,0.1,0.7-0.1,1.5-0.1
						C282,376.8,282.6,377,282.7,376.8z"/>
				</g>
				<g>
					<path class="st10" d="M276.4,368.1c0.2,0,0.2-0.7,0.6-1.5c0.4-0.8,0.9-1.3,0.8-1.4c-0.1-0.1-0.9,0.3-1.3,1.2
						C276.1,367.3,276.3,368.2,276.4,368.1z"/>
				</g>
				<g>
					<path class="st10" d="M273.3,365.9c0.1,0,0.4-0.5,0.6-1.5c0.1-0.5,0.2-1.1,0.2-1.7c0-0.3,0-0.7-0.1-1c0-0.2,0-0.4-0.2-0.6
						c-0.1-0.2-0.4-0.5-0.7-0.4c-0.3,0.1-0.5,0.3-0.6,0.5c-0.1,0.2-0.1,0.4-0.2,0.6c-0.1,0.4-0.1,0.7-0.1,1c0,0.7,0.1,1.3,0.3,1.7
						c0.3,1,0.8,1.4,0.8,1.4c0.1,0-0.2-0.6-0.5-1.5c-0.1-0.5-0.2-1-0.2-1.6c0-0.3,0-0.6,0.1-1c0.1-0.3,0.2-0.6,0.3-0.6
						c0.1,0,0.1,0,0.2,0.1c0.1,0.1,0.1,0.3,0.1,0.4c0.1,0.3,0.1,0.7,0.1,1c0,0.6,0,1.2-0.1,1.7C273.4,365.3,273.2,365.9,273.3,365.9
						z"/>
				</g>
				<g>
					<path class="st10" d="M273.5,365.8c0,0-0.3-0.5-1.3-1c-0.5-0.2-1-0.4-1.7-0.5c-0.3,0-0.7,0-1.1,0c-0.4,0-0.8,0.1-1.1,0.6
						c-0.1,0.3,0,0.6,0.1,0.8c0.2,0.2,0.3,0.3,0.5,0.4c0.3,0.2,0.7,0.3,1,0.4c0.7,0.2,1.3,0.1,1.8,0c1-0.2,1.4-0.8,1.4-0.8
						c-0.1-0.1-0.5,0.3-1.5,0.4c-0.5,0.1-1,0-1.6-0.1c-0.3-0.1-0.6-0.2-0.8-0.4c-0.3-0.2-0.5-0.4-0.4-0.5c0.1-0.1,0.4-0.3,0.7-0.3
						c0.3,0,0.6,0,1,0c0.6,0,1.2,0.2,1.6,0.3C273,365.5,273.5,365.9,273.5,365.8z"/>
				</g>
			</g>
			<g>
				<path class="st6" d="M252.9,389.2l9.7,20.4l3.1,18.4c0.2,1.3,1.5,2.2,2.8,1.9l0,0c0.7-0.2,1.3-0.7,1.6-1.4
					c1.8-4.4,8.3-20.8,7.5-22.2c-0.9-1.7-8.8-22.2-8.8-22.2L252.9,389.2z"/>
				<path class="st17" d="M268.5,429.8l8.5-25l0.4,0.9c0.3,0.8,0.4,1.6,0.2,2.4c-0.6,2.1-2.5,8-7.4,20.3
					C269.9,429.1,269.3,429.7,268.5,429.8L268.5,429.8z"/>
				<g class="st15">
					<path class="st16" d="M269.8,400.1c-0.4,0.6-0.2,1.4,0.4,1.8c0.6,0.4,1.4,0.2,1.8-0.4c0.4-0.6,0.2-1.6-0.4-1.9
						c-0.6-0.3-1.6,0-1.8,0.6"/>
				</g>
				<g>
					<path class="st10" d="M269.2,418.7c-0.1,0.1-1-0.8-2.5-0.8c-1.5-0.1-2.5,0.7-2.6,0.6c0,0,0.1-0.3,0.6-0.6
						c0.4-0.3,1.2-0.5,2-0.5c0.8,0,1.5,0.3,2,0.6C269.1,418.4,269.2,418.6,269.2,418.7z"/>
				</g>
				<g>
					<path class="st10" d="M269,422.1c-0.1,0.1-1-0.2-2.2-0.1c-1.2,0.1-2,0.8-2.1,0.6c-0.1-0.1,0.7-1,2.1-1.1
						C268,421.4,269,422,269,422.1z"/>
				</g>
				<g>
					<path class="st10" d="M270.3,413.9c-0.1,0.1-1.5-0.4-3.4-0.3c-1.9,0.1-3.3,0.8-3.4,0.7c-0.1-0.1,1.3-1.1,3.4-1.2
						C268.9,413,270.4,413.8,270.3,413.9z"/>
				</g>
				<g>
					<path class="st10" d="M267.9,407.5c0,0.1-1.4,0.2-2.9,0.8c-1.5,0.6-2.5,1.5-2.6,1.4c-0.1-0.1,0.8-1.2,2.4-1.9
						C266.5,407.1,267.9,407.3,267.9,407.5z"/>
				</g>
				<g>
					<path class="st10" d="M265.2,401.4c0,0.1-1.5,0-3,0.8c-1.6,0.7-2.3,2-2.4,1.9c-0.1,0,0.1-0.4,0.4-0.9c0.3-0.5,1-1.1,1.8-1.5
						c0.8-0.4,1.7-0.5,2.3-0.5C264.8,401.2,265.2,401.3,265.2,401.4z"/>
				</g>
				<g>
					<path class="st10" d="M261.7,401c0,0-0.2-0.2-0.4-0.8c-0.2-0.5-0.4-1.3-0.3-2.3c0.1-0.5,0.1-1.1,0.5-1.6c0.2-0.3,0.7-0.4,1-0.2
						c0.4,0.2,0.6,0.5,0.7,0.8c0.6,1.3,0,3.1-1.4,3.9c-1.4,0.8-3.1,0.6-4.2-0.3c-0.3-0.2-0.5-0.6-0.5-1c0-0.4,0.4-0.8,0.7-0.8
						c0.7-0.2,1.2,0,1.7,0.1c1,0.3,1.7,0.7,2.1,1c0.5,0.3,0.7,0.5,0.6,0.6c0,0.1-1-0.8-2.8-1.2c-0.5-0.1-1-0.2-1.5,0
						c-0.2,0.1-0.4,0.2-0.4,0.5c0,0.2,0.2,0.4,0.4,0.6c0.9,0.7,2.5,0.9,3.7,0.2c1.2-0.7,1.7-2.3,1.2-3.3c-0.1-0.3-0.3-0.5-0.5-0.6
						c-0.2-0.1-0.4,0-0.6,0.1c-0.3,0.3-0.4,0.9-0.5,1.4C261.2,399.8,261.8,401,261.7,401z"/>
				</g>
			</g>
			<g>
				<path class="st10" d="M285.7,351.3l-26.7-18l8.8-86.8l-25.3-14.8l-23.1-5.4c0,0-9.7,20.1-14,33c-9.1,27.4-15.6,37.2-14.1,57
					c0.5,6.3,23.6,22,38.3,30.7c0.2,2,0.5,3.8,0.8,5.2c5,22.6,20.3,52.7,20.3,52.7l23.2-10.8l-7.5-25.6l7.8,4.5L285.7,351.3z
					 M228.3,295.4l3.1-13.9c-0.7,8.8-1.3,18.1-1.7,26.9C228.2,304.3,227.7,299.7,228.3,295.4z"/>
				<g>
					<path class="st13" d="M250.7,405c0,0-0.1-0.1-0.2-0.4c-0.1-0.3-0.3-0.6-0.5-1.1c-0.4-1-1-2.4-1.8-4.2c-1.5-3.7-3.7-9-6.4-15.6
						c-2.6-6.6-5.8-14.5-9-23.4c-0.8-2.2-1.6-4.5-2.3-6.9c-0.3-1.2-0.7-2.4-0.9-3.7c-0.1-0.3-0.1-0.6-0.2-0.9l-0.1-0.9
						c-0.1-0.6-0.1-1.3-0.2-1.9c-0.3-2.6-0.5-5.2-0.7-7.8c-0.1-1.3-0.2-2.7-0.2-4c0-1.3-0.1-2.7,0-4.1c0.4-10.9,1.3-21.2,2.1-30.7
						c0.8-9.4,1.5-17.9,2.1-25c0.6-7.1,1-12.9,1.2-16.9c0.1-2,0.2-3.5,0.2-4.6c0-0.5,0-0.9,0.1-1.2c0-0.3,0-0.4,0-0.4
						c0,0,0,0.1,0,0.4c0,0.3,0,0.7,0,1.2c0,1.1-0.1,2.6-0.1,4.6c-0.2,4-0.5,9.8-1,16.9c-0.6,7.1-1.2,15.6-2,25
						c-0.7,9.4-1.6,19.8-2,30.6c-0.1,1.4,0,2.7,0,4c0.1,1.3,0.1,2.7,0.2,4c0.2,2.6,0.4,5.2,0.7,7.8c0.1,0.6,0.1,1.3,0.2,1.9l0.1,0.9
						c0.1,0.3,0.1,0.6,0.2,0.9c0.2,1.2,0.6,2.4,0.9,3.6c0.7,2.4,1.5,4.6,2.3,6.9c3.1,8.9,6.3,16.8,8.8,23.5c2.6,6.6,4.8,12,6.3,15.7
						c0.7,1.8,1.3,3.3,1.7,4.3c0.2,0.5,0.3,0.8,0.4,1.1C250.7,404.9,250.7,405,250.7,405z"/>
				</g>
				<g>
					<path class="st13" d="M232.9,248.4c0,0-0.2-0.1-0.6-0.5c-0.3-0.4-0.8-1-1.1-1.8c-0.7-1.7-1.1-4.2-1.1-6.9c0-2.7,0.2-5.2,0.3-7
						c0.2-1.8,0.3-2.9,0.4-2.9c0.1,0,0,1.1-0.1,2.9c-0.1,1.8-0.2,4.2-0.2,6.9c0.1,2.7,0.4,5.1,1,6.8c0.3,0.8,0.7,1.4,0.9,1.8
						C232.7,248.1,232.9,248.3,232.9,248.4z"/>
				</g>
				<g>
					<path class="st13" d="M222.9,227.7c0,0,0.3,0.9,0.2,2.4c-0.1,1.5-0.6,3.6-1.9,5.6c-1.3,1.9-3.1,3.2-4.5,3.8
						c-1.4,0.6-2.3,0.8-2.3,0.7c0-0.1,0.9-0.3,2.2-1c1.3-0.7,3-1.9,4.2-3.8c1.3-1.8,1.8-3.9,2-5.3
						C222.9,228.6,222.8,227.7,222.9,227.7z"/>
				</g>
				<g>
					<path class="st13" d="M264.4,278.2c0,0,0,0.1,0,0.3c0,0.2,0,0.5-0.1,0.8c-0.1,0.7-0.2,1.7-0.3,3c-0.3,2.6-0.7,6.3-1.2,10.9
						c-1,9.2-2.5,21.9-4.1,35.9c-0.6,7,0,13.8,1.3,19.7c0.6,3,1.5,5.7,2.4,8.3c0.9,2.6,1.7,5,2.5,7.1c1.5,4.3,2.7,7.9,3.6,10.3
						c0.4,1.2,0.7,2.1,1,2.8c0.1,0.3,0.2,0.5,0.2,0.7c0.1,0.2,0.1,0.3,0.1,0.3c0,0,0-0.1-0.1-0.2c-0.1-0.2-0.2-0.4-0.3-0.7
						c-0.3-0.7-0.6-1.6-1-2.8c-0.9-2.5-2.2-6-3.7-10.3c-0.8-2.2-1.6-4.6-2.6-7.1c-0.9-2.6-1.8-5.3-2.5-8.3c-1.4-6-2-12.8-1.4-19.8
						c1.6-14,3.1-26.7,4.2-35.9c0.6-4.6,1-8.3,1.3-10.9c0.2-1.3,0.3-2.2,0.4-3c0-0.3,0.1-0.6,0.1-0.8
						C264.4,278.3,264.4,278.2,264.4,278.2z"/>
				</g>
			</g>
			<g>
				<polyline class="st7" points="219.4,226.3 223.5,215.8 232.9,229.7 220.4,226.6 				"/>
				<path class="st6" d="M317.3,194.8l-11.1-24.9c-1.3-4-3.8-4.6-5.9-6.9l-27.8-15.7c-20.3-8.3-31.3,19.5-31.3,19.5l-18.4,42
					c-21.6,7.2-6.3,23.8-6.3,23.8s-5.9-10.2-0.1-13.9c6.1-3.9,12.8,6.3,19.2,16c7.6,11.4,32.4,18.8,32.4,18.8
					c2.9-3.1,2.1-13.8,4.4-19.5c0.7-1.8,17.9-41.6,17.9-41.6l6.7,16.1c0,0,8.5-10,12.7-11.6C313.7,195.4,317.3,194.8,317.3,194.8z"
					/>
				<g>
					<path class="st10" d="M268,212.5c0,0-0.3,0.2-0.8,0.6c-0.6,0.3-1.4,0.8-2.5,1.2c-2.2,0.8-5.5,1.5-9.1,0.9
						c-3.6-0.6-6.6-2.2-8.4-3.7c-0.9-0.7-1.6-1.4-2-1.9c-0.4-0.5-0.6-0.8-0.6-0.8c0.1-0.1,1,1.1,2.9,2.4c1.9,1.4,4.8,2.9,8.3,3.4
						c3.5,0.5,6.8,0,8.9-0.8C266.7,213.2,268,212.4,268,212.5z"/>
				</g>
				<path class="st6" d="M222,173L222,173l17.2,1.6l27.4-29l-16.1-0.6l-28.7,2.8C221.7,147.9,224.2,159.9,222,173z"/>
				<g>
					<path class="st10" d="M245.8,157.7c0,0-0.1,0.2-0.2,0.5c-0.2,0.4-0.4,0.9-0.7,1.5c-0.6,1.3-1.5,3.2-2.5,5.4
						c-2.1,4.6-5,11-8,18.1c-3.1,7.1-5.9,13.5-8,18.1c-1.1,2.3-1.9,4.2-2.5,5.4c-0.3,0.6-0.5,1.1-0.7,1.5c-0.2,0.3-0.3,0.5-0.3,0.5
						c0,0,0.1-0.2,0.2-0.5c0.2-0.4,0.4-0.9,0.6-1.5c0.6-1.4,1.4-3.2,2.4-5.5c2-4.7,4.8-11.1,7.8-18.2c3.1-7.1,6-13.5,8.2-18
						c1.1-2.3,2-4.1,2.7-5.4c0.3-0.6,0.6-1.1,0.8-1.4C245.7,157.9,245.8,157.7,245.8,157.7z"/>
				</g>
				<g>
					<path class="st10" d="M298.1,166.2c0,0.1-1,0.6-2.5,1.9c-0.7,0.6-1.5,1.4-2.3,2.4c-0.8,1-1.5,2.1-2.2,3.4
						c-0.6,1.3-1.1,2.6-1.4,3.8c-0.3,1.2-0.4,2.4-0.4,3.3c-0.1,1.9,0.2,3.1,0.1,3.1c0,0-0.1-0.3-0.2-0.8c-0.1-0.3-0.1-0.6-0.1-1
						c0-0.4-0.1-0.8-0.1-1.3c0-1,0.1-2.1,0.4-3.4c0.3-1.3,0.7-2.6,1.4-4c0.7-1.3,1.5-2.5,2.3-3.5c0.8-1,1.7-1.8,2.4-2.4
						c0.4-0.3,0.7-0.5,1.1-0.8c0.3-0.2,0.6-0.4,0.9-0.5C297.8,166.3,298.1,166.1,298.1,166.2z"/>
				</g>
			</g>
			<g>
				<g>
					<g>
						<g>
							<g>
								<g>
									<g>
										<g>
											<g>
												<g>
													<g>
														<g>
															<g>
																<g>
																	<path class="st7" d="M302.9,126.3l-16.1,30.1c-2.6,4.9-8.6,7-13.7,4.7l0,0c-5.6-2.5-7.9-9.2-5-14.6
																		c1.5-2.9,2.8-5.2,2.8-5.2s-7-4.5-3.7-12.1c2.9-6.7,13.6-25.8,15.9-29.8l13.6,6.1
																		C304.2,109.4,307.1,118.8,302.9,126.3z"/>
																</g>
															</g>
														</g>
													</g>
												</g>
											</g>
										</g>
										<g>
											<g>
												<g>
													<g>
														<g>
															<g>
																<g>
																	<path class="st18" d="M270.9,141.1c0,0,4.6,2.5,11,1.6c0,0-4.7,4.4-11.9,0.3L270.9,141.1z"/>
																</g>
															</g>
														</g>
													</g>
												</g>
											</g>
										</g>
									</g>
								</g>
							</g>
							<g>
								<g>
									<g>
										<g>
											<g>
												<g>
													<g>
														<g>
															<g>
																<g>
																	<g>
																		<g>
																			<g>
																				<path class="st10" d="M276.1,117.1c-0.3,0.6,0,1.2,0.6,1.5c0.6,0.3,1.3,0.1,1.5-0.5c0.3-0.6,0-1.3-0.5-1.5
																					C277,116.3,276.3,116.5,276.1,117.1z"/>
																			</g>
																		</g>
																	</g>
																</g>
															</g>
														</g>
													</g>
													<g>
														<g>
															<g>
																<g>
																	<g>
																		<g>
																			<g>
																				<g>
																					<path class="st10" d="M276.1,116.1c0.1,0.2,1.2,0,2.3,0.5c1.2,0.5,1.7,1.5,1.9,1.4c0.1,0,0.1-0.3-0.2-0.8
																						c-0.2-0.4-0.7-1-1.5-1.3c-0.7-0.3-1.4-0.3-1.9-0.2C276.3,115.8,276.1,116,276.1,116.1z"/>
																				</g>
																			</g>
																		</g>
																	</g>
																</g>
															</g>
														</g>
													</g>
												</g>
												<g>
													<g>
														<g>
															<g>
																<g>
																	<g>
																		<g>
																			<g>
																				<path class="st10" d="M286.9,122.4c-0.3,0.6,0,1.2,0.6,1.5c0.6,0.3,1.3,0.1,1.5-0.5c0.3-0.6,0-1.3-0.5-1.5
																					C287.8,121.6,287.2,121.8,286.9,122.4z"/>
																			</g>
																		</g>
																	</g>
																</g>
															</g>
														</g>
													</g>
													<g>
														<g>
															<g>
																<g>
																	<g>
																		<g>
																			<g>
																				<g>
																					<path class="st10" d="M287.4,121.4c0.1,0.2,1.2,0,2.3,0.5c1.2,0.5,1.7,1.5,1.9,1.4c0.1,0,0.1-0.3-0.2-0.8
																						c-0.2-0.4-0.7-1-1.5-1.3c-0.7-0.3-1.4-0.3-1.9-0.2C287.6,121.1,287.4,121.3,287.4,121.4z"/>
																				</g>
																			</g>
																		</g>
																	</g>
																</g>
															</g>
														</g>
													</g>
												</g>
												<g>
													<g>
														<g>
															<g>
																<g>
																	<g>
																		<g>
																			<g>
																				<path class="st10" d="M279.4,128.1c0-0.1-0.6-0.5-1.7-1.2c-0.3-0.2-0.5-0.3-0.5-0.6c0-0.2,0.3-0.5,0.6-0.8
																					c0.6-0.6,1.2-1.2,1.9-1.9c2.6-2.7,4.7-4.9,4.6-5c-0.1-0.1-2.3,2-5,4.6c-0.6,0.7-1.3,1.3-1.8,1.9
																					c-0.3,0.3-0.6,0.6-0.7,1.1c0,0.3,0.1,0.5,0.3,0.6c0.2,0.1,0.3,0.2,0.5,0.3C278.6,127.8,279.3,128.2,279.4,128.1
																					z"/>
																			</g>
																		</g>
																	</g>
																</g>
															</g>
														</g>
													</g>
												</g>
												<g>
													<g>
														<g>
															<g>
																<g>
																	<g>
																		<g>
																			<g>
																				<path class="st10" d="M282.4,130.4c-0.2-0.1-0.7,1.2-2.2,1.6c-1.5,0.4-2.7-0.3-2.8-0.2
																					c-0.1,0.1,0.2,0.4,0.7,0.6c0.5,0.3,1.4,0.5,2.3,0.2c0.9-0.3,1.5-0.9,1.8-1.4
																					C282.5,130.8,282.5,130.5,282.4,130.4z"/>
																			</g>
																		</g>
																	</g>
																</g>
															</g>
														</g>
													</g>
												</g>
											</g>
										</g>
									</g>
									<g>
										<g>
											<g>
												<g>
													<g>
														<g>
															<g>
																<path class="st10" d="M289.1,116.8c0,0.4,1.2,0.7,2.5,1.5c1.3,0.7,2.2,1.6,2.5,1.4c0.1-0.1,0.1-0.5-0.2-1
																	c-0.3-0.5-0.9-1.1-1.6-1.6c-0.8-0.5-1.6-0.7-2.2-0.7C289.5,116.5,289.1,116.6,289.1,116.8z"/>
															</g>
														</g>
													</g>
												</g>
											</g>
										</g>
									</g>
									<g>
										<g>
											<g>
												<g>
													<g>
														<g>
															<g>
																<path class="st10" d="M278.1,113c0.1,0.4,1,0.4,2,0.9c1,0.4,1.7,1,2,0.8c0.1-0.1,0.1-0.4-0.1-0.8
																	c-0.2-0.4-0.7-0.9-1.4-1.1c-0.7-0.3-1.3-0.3-1.8-0.2C278.3,112.6,278,112.8,278.1,113z"/>
															</g>
														</g>
													</g>
												</g>
											</g>
										</g>
									</g>
								</g>
							</g>
							<g>
								<g>
									<g>
										<g>
											<g>
												<g>
													<g>
														<g>
															<path class="st7" d="M297.9,130.8c0.2,0,5.8,0.8,3.4,5.8c-2.5,5.1-7,1.5-7,1.4C294.3,137.9,297.9,130.8,297.9,130.8z
																"/>
														</g>
													</g>
												</g>
											</g>
										</g>
									</g>
								</g>
								<g>
									<g>
										<g>
											<g>
												<g>
													<g>
														<g>
															<g>
																<path class="st18" d="M296.7,136.9c0,0,0.1,0.1,0.2,0.2c0.1,0.1,0.3,0.3,0.7,0.3c0.6,0.1,1.5-0.6,2-1.5
																	c0.2-0.5,0.4-0.9,0.4-1.4c0-0.4-0.1-0.8-0.3-1c-0.2-0.2-0.5-0.1-0.6,0c-0.1,0.1-0.2,0.2-0.2,0.2
																	c0,0-0.1-0.1,0.1-0.3c0.1-0.1,0.2-0.2,0.4-0.2c0.2,0,0.4,0,0.6,0.1c0.4,0.2,0.6,0.7,0.5,1.2c0,0.5-0.1,1.1-0.4,1.6
																	c-0.5,1-1.5,1.7-2.4,1.6c-0.4-0.1-0.6-0.3-0.7-0.5C296.7,137.1,296.7,136.9,296.7,136.9z"/>
															</g>
														</g>
													</g>
												</g>
											</g>
										</g>
									</g>
								</g>
							</g>
						</g>
					</g>
					<g>
						<g>
							<g>
								<path class="st10" d="M300.8,132c-0.7-0.5-2.4-0.4-3,0.2c-0.7,0.6-1.1,1.4-1.8,2c-0.7,0.6-1.7,0.9-2.4,0.4
									c-0.5-0.4-0.6-1.1-0.5-1.7c0.1-0.6,0.4-1.1,0.7-1.7c1.4-2.3,2.9-4.4,4.1-6.8c1.2-2.4,2-5,1.6-7.7c-0.3-2.6-2-5.2-4.5-6.1
									c-1.7-0.6-3.5-0.4-5.2-0.9c-2-0.6-3.7-2.1-4.4-4.1c-0.1-0.2-0.7-1.1-0.7-1.1c0.1-0.1,0.7-1.1,1.3-1.3
									c4.5-1.5,10.5,0.2,14.2,3.1s6.3,7.6,6.3,12.3C306.5,123.3,303.5,128.5,300.8,132"/>
							</g>
						</g>
					</g>
				</g>
				<g>
					<path class="st10" d="M300.8,131.4c1.4-2.4,3.7-4.1,5.4-6.3c1.7-2.2,2.9-5.2,1.7-7.7c-0.4-0.8-1.1-1.6-1.5-2.4
						c-0.4-0.9-0.4-1.9-0.5-2.8c-0.4-2.9-2.3-5.6-4.8-7c-1.8-1-3.8-1.4-5.6-2.3c-2.9-1.5-4.9-4.3-7.9-5.5c-1-0.4-2.2-0.6-3.1-0.1
						c-1,0.5-1.5,1.9-0.8,2.7c-0.1-1-1.4-1.5-2.2-1.1c-0.9,0.4-1.3,1.4-1.3,2.4c0.1,1,0.5,1.9,1.1,2.6c1.8,2.6,4.6,4.5,7.7,5.3
						l6.9-0.5l5.7,4.2l4.2,6.7l-7.6,9.9L300.8,131.4z"/>
				</g>
			</g>
		</g>
	</g>
</g>
<g id="Light_Bulb">
	<g>
		<g>
			<path class="st6" d="M257.7,92.1c-0.9-13.4-12.5-23.6-25.9-22.8c-13.4,0.9-23.6,12.5-22.8,25.9c0.6,9.7,6.9,17.7,15.4,21.1
				c0.2,2.9,0.4,6.1,0.4,6.1l21.3-1.4c0,0-0.1-3.5-0.2-6.5C253.4,110,258.3,101.5,257.7,92.1z"/>
			<g>
				<path class="st10" d="M238.4,121.5c0,0,0-0.1,0-0.3c0-0.2,0-0.5,0-0.9c0-0.8,0.1-1.9,0.2-3.4c0.1-1.5,0.3-3.3,0.6-5.4
					c0.3-2.1,0.8-4.4,1.8-6.9c0.5-1.2,1-2.5,1.8-3.8c0.4-0.6,0.9-1.2,1.6-1.6c0.7-0.4,1.6-0.4,2.3-0.1c0.4,0.2,0.7,0.5,0.8,0.9
					c0.2,0.4,0.1,0.9,0,1.3c-0.3,0.8-1,1.4-1.8,1.7c-1.6,0.7-3.4,0.6-5.1,0c-1.7-0.7-3-2.1-3.7-3.8c-0.3-0.9-0.5-1.8-0.3-2.8
					c0.2-1,1-1.9,2.1-1.8c0.5,0,1,0.3,1.3,0.8c0.3,0.4,0.4,1,0.3,1.5c-0.2,1-0.9,1.8-1.6,2.5c-1.5,1.4-3.5,2.2-5.6,2
					c-2.1-0.2-4-1.4-4.9-3.2c-0.5-0.9-0.7-2-0.4-2.9c0.2-0.5,0.5-0.9,1-1.1c0.5-0.2,1-0.2,1.5,0c0.5,0.2,0.9,0.6,1.1,1
					c0.3,0.4,0.4,0.9,0.5,1.4c0.1,0.9,0.1,1.9-0.2,2.8c-0.5,1.8-1.6,3.4-3.2,4.3c-1.5,0.9-3.3,1.3-5,1c-0.8-0.1-1.7-0.4-2.3-1
					c-0.6-0.6-0.8-1.6-0.3-2.3c0.3-0.3,0.7-0.5,1.1-0.6c0.4-0.1,0.8,0,1.2,0.2c0.7,0.3,1.2,1,1.6,1.6c0.7,1.3,1.3,2.5,1.8,3.7
					c2.3,4.8,3.9,8.7,5,11.5c0.6,1.4,1,2.4,1.2,3.2c0.1,0.4,0.2,0.6,0.3,0.8c0.1,0.2,0.1,0.3,0.1,0.3s0-0.1-0.1-0.3
					c-0.1-0.2-0.2-0.5-0.3-0.8c-0.3-0.7-0.7-1.8-1.3-3.1c-1.1-2.7-2.8-6.7-5.1-11.4c-0.6-1.2-1.2-2.4-1.9-3.7
					c-0.4-0.6-0.8-1.2-1.5-1.5c-0.6-0.3-1.5-0.2-1.9,0.4c-0.4,0.6-0.2,1.5,0.3,2c0.5,0.6,1.3,0.8,2.1,0.9c1.6,0.2,3.3-0.1,4.8-1
					c1.5-0.9,2.6-2.4,3-4.1c0.2-0.9,0.3-1.8,0.2-2.7c-0.1-0.9-0.6-1.8-1.4-2.2c-0.4-0.2-0.9-0.2-1.3,0c-0.4,0.2-0.7,0.5-0.8,1
					c-0.3,0.9-0.1,1.9,0.3,2.7c0.9,1.7,2.7,2.9,4.7,3c2,0.2,3.9-0.6,5.3-1.9c0.7-0.7,1.3-1.4,1.5-2.4c0.1-0.4,0-0.9-0.2-1.3
					c-0.2-0.4-0.6-0.6-1.1-0.6c-0.4,0-0.9,0.2-1.2,0.5c-0.3,0.3-0.5,0.7-0.6,1.1c-0.2,0.9,0,1.8,0.3,2.6c0.6,1.7,2,3,3.5,3.7
					c1.6,0.7,3.4,0.7,4.9,0c0.7-0.3,1.4-0.9,1.6-1.6c0.3-0.7,0-1.5-0.7-1.9c-0.7-0.3-1.5-0.3-2.1,0.1c-0.6,0.3-1.1,0.9-1.5,1.5
					c-0.7,1.2-1.3,2.5-1.8,3.7c-0.9,2.5-1.4,4.8-1.8,6.9c-0.3,2.1-0.5,3.9-0.7,5.3c-0.1,1.5-0.2,2.6-0.3,3.4c0,0.4-0.1,0.7-0.1,0.9
					C238.4,121.4,238.4,121.5,238.4,121.5z"/>
			</g>
			<path class="st10" d="M244.7,125.2l-18.3,1.2c-0.8,0-1.4-0.5-1.5-1.3l0,0c0-0.8,0.5-1.4,1.3-1.5l18.3-1.2c0.8,0,1.4,0.5,1.5,1.3
				l0,0C246,124.5,245.5,125.1,244.7,125.2z"/>
			<path class="st10" d="M244.8,126.4l-18.3,1.2c-0.8,0-1.3,0.7-1.3,1.5c0,0.8,0.7,1.3,1.5,1.3l2-0.1l3,4.9c0.3,0.6,1,0.9,1.6,0.8
				l6.5-0.4c0.7,0,1.2-0.5,1.5-1.1l2.3-5.2l1.4-0.1c0.8,0,1.3-0.7,1.3-1.5C246.2,126.9,245.5,126.3,244.8,126.4z"/>
		</g>
		<g class="st19">
			<path class="st16" d="M216.7,79.2c1.5-1.6,3.2-2.8,4.7-3.6c1.5-0.8,2.8-1.2,3.7-1.3c0.9-0.2,1.4-0.1,1.5,0.1c0.1,0.4-1.7,1.2-4,3
				c-2.4,1.8-5.3,4.8-6.9,9c-1.6,4.1-1.5,8.4-0.9,11.3c0.5,2.9,1.3,4.7,0.9,5c-0.2,0.1-0.6-0.2-1.2-0.9c-0.6-0.7-1.2-1.9-1.8-3.5
				c-0.6-1.6-1-3.5-1-5.8c-0.1-2.2,0.3-4.7,1.2-7.1"/>
		</g>
		<g class="st19">
			<path class="st16" d="M232.5,75.1c-1.5,0.1-2.9-0.2-3.1-1.1c-0.1-0.4,0.2-0.9,0.7-1.2c0.5-0.4,1.3-0.7,2.3-0.7
				c0.9-0.1,1.8,0.1,2.3,0.4c0.6,0.3,0.9,0.7,0.8,1.1"/>
		</g>
		<g>
			<path class="st13" d="M241,134.9c0,0-0.5-0.1-1.3-0.3c-0.8-0.2-1.9-0.3-3.1-0.2c-1.2,0.1-2.3,0.5-3,0.8c-0.7,0.3-1.2,0.6-1.2,0.5
				c0,0,0.4-0.4,1.1-0.7c0.7-0.4,1.8-0.8,3.1-0.9c1.3-0.1,2.4,0.1,3.2,0.3C240.6,134.6,241,134.9,241,134.9z"/>
		</g>
		<g>
			<path class="st13" d="M243.6,129.3c0,0.1-3.3,0.4-7.4,0.6c-4.1,0.3-7.4,0.4-7.4,0.3c0-0.1,3.3-0.4,7.4-0.6
				C240.3,129.3,243.6,129.2,243.6,129.3z"/>
		</g>
		<g>
			<path class="st13" d="M242.6,131.5c0,0-0.7,0.2-1.8,0.3c-1.1,0.1-2.7,0.3-4.4,0.4c-1.7,0.1-3.3,0.2-4.4,0.2c-1.1,0-1.8,0-1.8,0
				c0,0,0.7-0.1,1.8-0.2c1.2-0.1,2.7-0.2,4.4-0.3c1.7-0.1,3.2-0.3,4.4-0.4C241.9,131.5,242.6,131.5,242.6,131.5z"/>
		</g>
	</g>
</g>
<g id="Book">
	<g>
		<path class="st6" d="M110.8,254l4,6.4c0,0,17-15.6,33.8-11.2C148.6,249.1,133.4,236.3,110.8,254z"/>
		<path class="st8" d="M148.6,249.1c0,0,12.5-13.5,30.7-10.4l5,0.8l-1.6-2.9C182.7,236.6,150.9,225.7,148.6,249.1z"/>
		<g>
			<path class="st2" d="M122.3,203.6c0,0-24.9-4.3-41.3,4.6l26,48.9c0,0,21.3-20.5,41.6-7.9L122.3,203.6z"/>
			<g>
				<path class="st10" d="M122.3,203.6c0,0,0,0.1,0.1,0.2c0.1,0.2,0.2,0.4,0.4,0.6c0.3,0.6,0.8,1.4,1.4,2.4c1.3,2.2,3.1,5.3,5.4,9.3
					c4.6,8,11.2,19.4,19.1,33c0.1,0.1,0,0.2-0.1,0.3c-0.1,0-0.2,0-0.2,0c-2.8-1.7-6.1-3-9.6-3.7c-1.8-0.3-3.6-0.4-5.4-0.4
					c-1.8,0.1-3.7,0.3-5.5,0.7c-7.4,1.6-14.5,5.6-20.6,11l-0.2,0.2c-0.1,0.1-0.3,0.1-0.4,0c0,0,0,0,0-0.1
					c-9.6-18.2-18.6-35.1-25.9-48.9c-0.1-0.1,0-0.2,0.1-0.3l0,0c5.7-3,11.5-4.2,16.6-4.9c5.1-0.7,9.6-0.7,13.3-0.6
					c3.7,0.1,6.6,0.4,8.5,0.7c1,0.1,1.7,0.2,2.2,0.3c0.2,0,0.4,0.1,0.6,0.1C122.2,203.5,122.3,203.6,122.3,203.6c0,0-0.1,0-0.2,0
					c-0.1,0-0.3,0-0.6-0.1c-0.5-0.1-1.2-0.2-2.2-0.3c-1.9-0.2-4.8-0.5-8.5-0.5c-3.7-0.1-8.2,0-13.3,0.7c-5.1,0.7-10.8,2-16.5,5
					l0.1-0.3c7.4,13.8,16.3,30.7,26,48.9l-0.4-0.1l0.2-0.2c3.1-2.8,6.4-5.1,9.9-7c3.5-1.9,7.2-3.3,10.9-4.1c1.9-0.4,3.7-0.6,5.6-0.7
					c1.9,0,3.7,0.1,5.5,0.4c3.6,0.6,6.9,2,9.7,3.8l-0.3,0.3c-7.8-13.6-14.3-25-18.9-33c-2.3-4-4.1-7.2-5.3-9.3
					c-0.6-1.1-1.1-1.9-1.4-2.5c-0.1-0.3-0.3-0.5-0.4-0.6C122.3,203.6,122.3,203.6,122.3,203.6z"/>
			</g>
		</g>
		<g>
			<path class="st2" d="M161.5,193.5c0,0-18.9-12-38.9,10l26.3,45.6c0,0,5.4-18.5,36.7-12.1L161.5,193.5z"/>
			<g>
				<path class="st10" d="M161.5,193.5c0,0,0,0.1,0.1,0.2c0.1,0.1,0.2,0.3,0.3,0.6c0.3,0.5,0.8,1.3,1.3,2.3c1.2,2.1,2.8,5.1,5,8.8
					c4.3,7.6,10.3,18.5,17.6,31.5c0.1,0.1,0,0.2-0.1,0.3c0,0-0.1,0-0.1,0l0,0c-1.5-0.3-3.1-0.5-4.7-0.8c-0.8-0.2-1.6-0.2-2.4-0.3
					c-0.8-0.1-1.6-0.1-2.5-0.2c-0.8-0.1-1.7-0.1-2.5-0.1c-0.8,0-1.7,0-2.5,0c-0.9,0-1.7,0.2-2.6,0.3c-0.9,0.1-1.7,0.2-2.6,0.4
					c-0.9,0.2-1.7,0.4-2.6,0.6c-0.8,0.3-1.7,0.6-2.5,0.9c-0.8,0.3-1.6,0.8-2.4,1.1c-0.4,0.2-0.8,0.4-1.2,0.7l-1.1,0.7
					c-0.8,0.5-1.4,1.1-2.2,1.7c-0.6,0.7-1.3,1.3-1.9,2c-1.2,1.4-2.2,3.1-2.8,4.8l0,0c0,0.1-0.2,0.2-0.3,0.2c-0.1,0-0.1-0.1-0.1-0.1
					c-0.3-0.6-0.7-1.2-1.1-1.8c-9.3-16.1-18-31.2-25.2-43.8c0-0.1,0-0.2,0-0.2c4.4-4.8,9.3-8.5,14.2-10.7c4.9-2.2,9.6-2.8,13.4-2.5
					c3.8,0.2,6.7,1.2,8.6,1.9c0.9,0.4,1.6,0.7,2.1,1c0.2,0.1,0.4,0.2,0.5,0.3C161.4,193.5,161.5,193.5,161.5,193.5
					c0,0-0.1,0-0.2-0.1c-0.1-0.1-0.3-0.2-0.5-0.3c-0.5-0.2-1.2-0.6-2.1-0.9c-1.9-0.7-4.8-1.6-8.6-1.8c-3.8-0.2-8.5,0.4-13.3,2.6
					c-4.8,2.2-9.7,5.8-14.1,10.7l0-0.2c7.3,12.6,15.9,27.6,25.3,43.7c0.4,0.6,0.7,1.3,1.1,1.8l-0.5,0.1c0.7-1.9,1.7-3.5,2.9-5
					c0.6-0.8,1.3-1.4,1.9-2.1c0.7-0.6,1.4-1.2,2.2-1.7l1.2-0.8c0.4-0.3,0.8-0.5,1.2-0.7c0.8-0.4,1.6-0.9,2.5-1.2
					c0.9-0.3,1.7-0.6,2.6-0.9c0.9-0.2,1.8-0.4,2.6-0.6c0.9-0.2,1.7-0.3,2.6-0.4c0.9-0.1,1.7-0.2,2.6-0.3c0.9,0,1.7,0,2.6,0
					c0.9,0,1.7,0,2.5,0.1c0.8,0.1,1.7,0.1,2.5,0.2c0.8,0.1,1.6,0.1,2.4,0.3c1.6,0.3,3.2,0.5,4.7,0.8l-0.2,0.3
					c-7.2-13-13.2-23.9-17.4-31.6c-2.1-3.8-3.7-6.8-4.9-8.9c-0.5-1-1-1.8-1.3-2.4c-0.1-0.3-0.2-0.5-0.3-0.6
					C161.5,193.6,161.5,193.5,161.5,193.5z"/>
			</g>
		</g>
		<g>
			<path class="st2" d="M88,184.6l28.1,54.2c0,0,22.9-1,32.5,10.1l-26.1-45.3C122.6,203.6,107.3,184.6,88,184.6z"/>
			<g>
				<path class="st10" d="M88,184.6c0,0,0.2,0,0.7,0c0.5,0,1.2,0.1,2.2,0.1c0.2,0,0.5,0,0.8,0c0.3,0,0.5,0.1,0.8,0.1
					c0.6,0.1,1.2,0.2,1.9,0.3c0.7,0.1,1.4,0.3,2.2,0.5c0.8,0.2,1.6,0.4,2.4,0.7c6.7,2.2,15.7,7.7,23.8,17l0,0l0,0
					c7.4,12.9,16.4,28.5,26.1,45.3c0.1,0.1,0,0.3-0.1,0.3c-0.1,0.1-0.2,0-0.3,0l0,0c-0.3-0.3-0.7-0.7-1.1-1.1
					c-2.1-2-4.6-3.6-7.2-4.8c-2.6-1.2-5.3-2.1-8-2.6c-5.4-1.2-10.9-1.7-16-1.6l0,0c-0.1,0-0.2,0-0.2-0.1
					c-8.2-15.9-15.2-29.5-20.2-39.1c-2.4-4.8-4.4-8.6-5.7-11.2c-0.7-1.3-1.2-2.3-1.5-3c-0.2-0.3-0.3-0.6-0.4-0.8
					C88,184.7,88,184.6,88,184.6c0,0,0.1,0.1,0.2,0.3c0.1,0.2,0.2,0.4,0.4,0.8c0.4,0.7,0.9,1.7,1.6,3c1.4,2.6,3.4,6.4,5.9,11.2
					c5,9.6,12.1,23,20.3,38.8l-0.2-0.1c5.2-0.1,10.6,0.3,16.1,1.6c2.7,0.6,5.5,1.5,8.1,2.7c2.7,1.1,5.2,2.8,7.3,4.9
					c0.4,0.4,0.8,0.8,1.1,1.1l-0.4,0.3c-9.7-16.9-18.6-32.5-26-45.4l0,0c-4-4.7-8.3-8.3-12.3-11.1c-4.1-2.8-7.9-4.7-11.3-5.9
					c-0.8-0.3-1.6-0.5-2.4-0.7c-0.8-0.2-1.5-0.4-2.1-0.5c-0.7-0.1-1.3-0.2-1.9-0.3c-0.3-0.1-0.6-0.1-0.8-0.1c-0.3,0-0.5,0-0.7-0.1
					C89.2,184.7,88.4,184.6,88,184.6z"/>
			</g>
		</g>
	</g>
</g>
<g id="Stars">
	<g>
		<g>
			<g>
				<g>
					<path class="st6" d="M175.8,338.2l0.6,1c0.7,1.1,1.7,2,2.8,2.6l1,0.5l-1,0.6c-1.1,0.7-2,1.7-2.6,2.8l-0.5,1l-0.6-1
						c-0.7-1.1-1.7-2-2.8-2.6l-1-0.5l1-0.6c1.1-0.7,2-1.7,2.6-2.8L175.8,338.2z"/>
				</g>
			</g>
		</g>
	</g>
	<g>
		<g>
			<g>
				<g>
					<path class="st8" d="M120.4,131.9l0.6,1c0.7,1.1,1.7,2,2.8,2.6l1,0.5l-1,0.6c-1.1,0.7-2,1.7-2.6,2.8l-0.5,1l-0.6-1
						c-0.7-1.1-1.7-2-2.8-2.6l-1-0.5l1-0.6c1.1-0.7,2-1.7,2.6-2.8L120.4,131.9z"/>
				</g>
			</g>
		</g>
	</g>
	<g>
		<g>
			<g>
				<g>
					<path class="st6" d="M376.9,167.5l0.6,1c0.7,1.1,1.7,2,2.8,2.6l1,0.5l-1,0.6c-1.1,0.7-2,1.7-2.6,2.8l-0.5,1l-0.6-1
						c-0.7-1.1-1.7-2-2.8-2.6l-1-0.5l1-0.6c1.1-0.7,2-1.7,2.6-2.8L376.9,167.5z"/>
				</g>
			</g>
		</g>
	</g>
	<g>
		<g>
			<g>
				<g>
					<path class="st6" d="M346.6,351.2l0.6,1c0.7,1.1,1.7,2,2.8,2.6l1,0.5l-1,0.6c-1.1,0.7-2,1.7-2.6,2.8l-0.5,1l-0.6-1
						c-0.7-1.1-1.7-2-2.8-2.6l-1-0.5l1-0.6c1.1-0.7,2-1.7,2.6-2.8L346.6,351.2z"/>
				</g>
			</g>
		</g>
	</g>
	<g>
		<g>
			<g>
				<g>
					<path class="st8" d="M352.4,389.7l0.3,0.1c0.3,0.1,0.7,0.2,1,0.1l0.3-0.1l-0.1,0.3c-0.1,0.3-0.2,0.7-0.1,1l0.1,0.3l-0.3-0.1
						c-0.3-0.1-0.7-0.2-1-0.1l-0.3,0.1l0.1-0.3c0.1-0.3,0.2-0.7,0.1-1L352.4,389.7z"/>
				</g>
			</g>
		</g>
	</g>
	<g>
		<g>
			<g>
				<g>
					<path class="st8" d="M369.9,128.8l0.3,0.1c0.3,0.1,0.7,0.2,1,0.1l0.3-0.1l-0.1,0.3c-0.1,0.3-0.2,0.7-0.1,1l0.1,0.3l-0.3-0.1
						c-0.3-0.1-0.7-0.2-1-0.1l-0.3,0.1l0.1-0.3c0.1-0.3,0.2-0.7,0.1-1L369.9,128.8z"/>
				</g>
			</g>
		</g>
	</g>
	<g>
		<g>
			<g>
				<g>
					<path class="st6" d="M131.6,105l0.3,0.1c0.3,0.1,0.7,0.2,1,0.1l0.3-0.1l-0.1,0.3c-0.1,0.3-0.2,0.7-0.1,1l0.1,0.3l-0.3-0.1
						c-0.3-0.1-0.7-0.2-1-0.1l-0.3,0.1l0.1-0.3c0.1-0.3,0.2-0.7,0.1-1L131.6,105z"/>
				</g>
			</g>
		</g>
	</g>
	<g>
		<g>
			<g>
				<g>
					<path class="st6" d="M161,308.2l0.3,0.1c0.3,0.1,0.7,0.2,1,0.1l0.3-0.1l-0.1,0.3c-0.1,0.3-0.2,0.7-0.1,1l0.1,0.3l-0.3-0.1
						c-0.3-0.1-0.7-0.2-1-0.1l-0.3,0.1l0.1-0.3c0.1-0.3,0.2-0.7,0.1-1L161,308.2z"/>
				</g>
			</g>
		</g>
	</g>
	<g>
		<g>
			<g>
				<g>
					<g>
						<g>
							<path class="st8" d="M192.9,386.7c0,0-0.1,0.1-0.3,0.3c-0.2,0.2-0.5,0.5-0.8,0.8c-0.8,0.7-1.8,1.8-3.2,3.1
								c-2.8,2.7-6.9,6.7-12,11.6l0-0.1c0.6,12.5,1.3,29.6,2.2,48.6l0,0.4l-0.4-0.2c-1.4-0.9-2.8-1.9-4.3-2.9
								c-9.9-6.6-19.2-12.9-27.4-18.4l-0.1,0l0-0.1c-4.1-12.2-7.5-22.5-10-29.8c-1.2-3.6-2.1-6.5-2.8-8.5c-0.3-1-0.6-1.7-0.7-2.2
								c-0.1-0.2-0.1-0.4-0.2-0.6c0-0.1-0.1-0.2-0.1-0.2c0,0,0,0.1,0.1,0.2c0.1,0.1,0.1,0.3,0.2,0.6c0.2,0.5,0.4,1.3,0.8,2.2
								c0.7,2,1.7,4.8,2.9,8.4c2.5,7.3,6,17.6,10.1,29.8l-0.1-0.1c8.2,5.5,17.6,11.7,27.5,18.3c1.5,1,3,2,4.3,2.9l-0.3,0.2
								c-0.8-19-1.5-36-2.1-48.6l0-0.1l0.1,0c5.1-4.8,9.2-8.7,12.1-11.5c1.4-1.3,2.5-2.4,3.3-3.1c0.4-0.3,0.7-0.6,0.9-0.8
								C192.8,386.8,192.9,386.7,192.9,386.7z"/>
						</g>
					</g>
				</g>
			</g>
		</g>
		<g>
			<g>
				<g>
					<g>
						<polygon class="st8" points="180.1,445.3 180,448.1 182.3,449.8 179.6,450.6 178.7,453.2 177.1,450.9 174.3,450.9 176,448.6 
							175.2,445.9 177.8,446.9 						"/>
					</g>
				</g>
			</g>
		</g>
		<g>
			<g>
				<g>
					<g>
						<polygon class="st6" points="147.1,426 147.1,427.9 148.7,428.9 146.9,429.5 146.5,431.3 145.4,429.8 143.5,429.9 
							144.6,428.4 143.9,426.7 145.6,427.2 						"/>
					</g>
				</g>
			</g>
		</g>
		<g>
			<g>
				<g>
					<g>
						<polygon class="st6" points="132.8,385.1 134.2,386.9 136.5,386.8 135.2,388.6 136,390.7 133.9,390.1 132.1,391.5 132,389.3 
							130.1,388.1 132.3,387.3 						"/>
					</g>
				</g>
			</g>
		</g>
		<g>
			<g>
				<g>
					<g>
						<polygon class="st6" points="191.5,383.3 192.9,385.1 195.2,385 193.9,386.8 194.7,388.9 192.5,388.3 190.8,389.7 
							190.7,387.5 188.8,386.3 191,385.5 						"/>
					</g>
				</g>
			</g>
		</g>
		<g>
			<g>
				<g>
					<g>
						<polygon class="st6" points="176.1,400.5 177,401.6 178.4,401.5 177.6,402.7 178.1,404.1 176.8,403.7 175.7,404.6 
							175.6,403.1 174.4,402.4 175.8,401.9 						"/>
					</g>
				</g>
			</g>
		</g>
	</g>
</g>
<g id="Planets">
	<g>
		<g>
			<g>
				<g>
					<g>
						<g>
							<circle class="st6" cx="123.2" cy="304.9" r="19.9"/>
						</g>
					</g>
				</g>
			</g>
			<g class="st5">
				<g>
					<g>
						<g>
							<path class="st16" d="M120.6,311.1c0,1.8-1.5,3.3-3.3,3.3s-3.3-1.5-3.3-3.3c0-1.8,1.5-3.3,3.3-3.3S120.6,309.3,120.6,311.1z"
								/>
						</g>
					</g>
				</g>
			</g>
			<g class="st5">
				<g>
					<g>
						<g>
							<path class="st16" d="M116,301.7c0,1-0.8,1.9-1.9,1.9c-1,0-1.9-0.8-1.9-1.9c0-1,0.8-1.9,1.9-1.9
								C115.1,299.9,116,300.7,116,301.7z"/>
						</g>
					</g>
				</g>
			</g>
		</g>
		<g>
			<g>
				<g>
					<g>
						<path class="st14" d="M103.8,309.8c0.1,0.3-17.1,16.8-12.6,20.3c4.4,3.5,23-5.5,38.9-18.3c15.9-12.8,30.4-28.4,26.4-32.5
							c-4-4.1-23.8,8.1-23.8,8.1l2.4,1.5c0,0,12-7.7,15.8-4.7c3.8,3-7,14.6-22.3,25.8c-15.3,11.1-30,18.9-32.3,15.9
							c-2.3-3.1,8.5-13.2,8.5-13.2L103.8,309.8z"/>
					</g>
				</g>
			</g>
		</g>
		<g>
			<g>
				<g>
					<g>
						<path class="st8" d="M103.8,309.8c0.1,0.3-17.1,16.8-12.6,20.3c4.4,3.5,23-5.5,38.9-18.3c15.9-12.8,30.4-28.4,26.4-32.5
							c-4-4.1-23.8,8.1-23.8,8.1l2.4,1.5c0,0,12-7.7,15.8-4.7c3.8,3-7,14.6-22.3,25.8c-15.3,11.1-30,18.9-32.3,15.9
							c-2.3-3.1,8.5-13.2,8.5-13.2L103.8,309.8z"/>
					</g>
				</g>
			</g>
		</g>
		<g class="st5">
			<g>
				<g>
					<g>
						<g>
							<path class="st16" d="M112.2,290.9c0.2,0.2-1.2,1.3-2.7,3.6c-1.5,2.3-3.1,5.9-3.2,10c-0.1,4.2,1.4,7.8,2.8,10.1
								c1.4,2.4,2.7,3.6,2.6,3.7c-0.1,0.1-1.7-0.8-3.5-3.1c-0.9-1.2-1.8-2.7-2.4-4.5c-0.7-1.8-1.1-4-1-6.2c0.1-2.3,0.5-4.4,1.3-6.2
								c0.7-1.8,1.7-3.3,2.6-4.4C110.5,291.6,112.1,290.7,112.2,290.9z"/>
						</g>
					</g>
				</g>
			</g>
		</g>
	</g>
	<g>
		<g>
			<g>
				<g>
					<g>
						
							<ellipse transform="matrix(0.722 -0.6919 0.6919 0.722 13.6297 270.1212)" class="st6" cx="343" cy="118.1" rx="16.5" ry="16.5"/>
					</g>
				</g>
			</g>
		</g>
		<g>
			<g>
				<g>
					<g>
						<path class="st8" d="M348.3,111.8c0-1.5,1.3-2.7,2.7-2.6c1.5,0,2.7,1.3,2.6,2.7c0,1.5-1.3,2.7-2.7,2.6
							C349.5,114.5,348.3,113.3,348.3,111.8z"/>
					</g>
				</g>
			</g>
		</g>
		<g>
			<g>
				<g>
					<g>
						<path class="st8" d="M353.7,118.1c0-0.9,0.7-1.5,1.6-1.5c0.9,0,1.5,0.7,1.5,1.6c0,0.9-0.7,1.5-1.6,1.5
							C354.4,119.6,353.7,118.9,353.7,118.1z"/>
					</g>
				</g>
			</g>
		</g>
		<g class="st20">
			<g>
				<g>
					<g>
						<path class="st8" d="M351.6,122.9c0.3,0,0.6,0.3,0.6,0.6c0,0.3-0.3,0.6-0.6,0.6c-0.3,0-0.6-0.3-0.6-0.6
							C351,123.1,351.3,122.8,351.6,122.9z"/>
					</g>
				</g>
			</g>
		</g>
	</g>
</g>
</svg>
